<svg width="334" height="394" viewBox="0 0 334 394" fill="none" xmlns="http://www.w3.org/2000/svg">
<path fill-rule="evenodd" clip-rule="evenodd" d="M233.16 291.622C216.242 305.359 193.075 312.951 167.909 313H167.67C149.811 313 131.267 309.195 115.448 302.299C97.3166 294.382 84.2384 283.082 77.625 269.604L75.3215 264.917L78.7066 260.918L103.947 231.113L110.51 223.359L116.818 231.316C131.292 249.586 153.659 256.061 168.413 256.061H168.52C177.206 256.045 184.761 253.957 189.797 250.185C194.644 246.566 197.096 241.467 197.079 235.047C197.046 219.659 181.169 211.871 155.26 200.442C139.309 193.408 121.227 185.435 107.224 173.171C90.4886 158.512 82.3312 140.347 82.2907 117.649C82.2486 96.7486 90.5794 77.5397 105.746 63.552C121.698 48.8519 143.627 41.0567 169.164 41H169.461C201.851 41 230.336 51.5952 247.6 70.0602L252.125 74.8927L248.236 80.2353L224.449 112.873L218.876 120.523L211.99 113.99C201.529 104.074 191.366 97.9304 173.053 97.9304H172.896C164.078 97.9466 156.887 99.9541 152.09 103.726C147.896 107.037 145.765 111.554 145.782 117.172C145.815 133.677 161.874 141.326 188.071 152.432C203.949 159.159 221.939 166.784 235.852 178.885C252.439 193.319 260.522 211.532 260.571 234.571C260.613 256.968 250.878 277.229 233.16 291.622ZM333.461 174.262V16.1871C333.461 7.25182 326.066 0 316.955 0H16.7618C7.6505 0 0.255842 7.25182 0.255842 16.1871V174.262H0C1.81565 297.049 95.4703 360.495 163.277 393.168C165.579 394.277 168.27 394.277 170.572 393.168C238.387 360.495 332.042 297.049 333.857 174.262H333.461Z" fill="#4D00CA" fill-opacity="0.05"/>
</svg>
