<svg width="391" height="349" viewBox="0 0 391 349" fill="none" xmlns="http://www.w3.org/2000/svg">
<path opacity="0.2" d="M382.966 99.7914C387.518 99.7914 391 96.2852 391 91.7002V65.2689C391 60.6839 387.518 57.1777 382.966 57.1777H294.857V18.8794C294.857 8.3609 286.555 0 276.11 0H112.479C102.035 0 93.7329 8.3609 93.7329 18.8794V57.1777H8.03425C3.48151 57.1777 0 60.6839 0 65.2689V327.423C0 339.291 9.6411 349 21.4247 349H369.575C381.359 349 391 339.291 391 327.423V144.832C391 140.247 387.518 136.741 382.966 136.741C378.413 136.741 374.932 140.247 374.932 144.832V173.961H294.589V144.832C294.589 140.247 291.108 136.741 286.555 136.741C282.002 136.741 278.521 140.247 278.521 144.832V173.961H109.801V144.832C109.801 140.247 106.32 136.741 101.767 136.741C97.2144 136.741 93.7329 140.247 93.7329 144.832V173.961H16.0685V73.3601H101.767H286.823H374.932V91.7002C374.932 96.2852 378.413 99.7914 382.966 99.7914ZM93.7329 190.143V204.168C93.7329 208.753 97.2144 212.259 101.767 212.259C106.32 212.259 109.801 208.753 109.801 204.168V190.143H278.521V204.168C278.521 208.753 282.002 212.259 286.555 212.259C291.108 212.259 294.589 208.753 294.589 204.168V190.143H374.932V327.423C374.932 330.39 372.521 332.818 369.575 332.818H21.4247C18.4788 332.818 16.0685 330.39 16.0685 327.423V190.143H93.7329ZM109.801 57.1777V18.8794C109.801 17.2612 110.873 16.1824 112.479 16.1824H276.11C277.717 16.1824 278.788 17.2612 278.788 18.8794V57.1777H109.801Z" fill="white"/>
</svg>
