<?xml version="1.0" encoding="utf-8"?>
<!-- Generator: Adobe Illustrator 22.0.0, SVG Export Plug-In . SVG Version: 6.00 Build 0)  -->
<svg version="1.1" id="Layer_1" xmlns="http://www.w3.org/2000/svg" xmlns:xlink="http://www.w3.org/1999/xlink" x="0px" y="0px"
	 viewBox="0 0 300 300" style="enable-background:new 0 0 300 300;" xml:space="preserve">
<style type="text/css">
	.st0{fill:#FFFFFF;}
	.st1{fill:#023FFF;}
	.st2{display:none;}
	.st3{display:inline;fill:#FFFFFF;}
</style>
<g>
	<path class="st0" d="M733.7,594.3l-90-40c-0.8-0.3-1.7-0.3-2.4,0l-90,40c-0.5,0.2-0.9,0.5-1.1,0.9c-0.7,0.5-1.1,1.4-1.1,2.3v37.3
		c-6.8,1.4-12,7.5-12,14.7c0,8.3,6.7,15,15,15s15-6.7,15-15c0-7.2-5.2-13.3-12-14.7v-33.4l21,9.3v37.8c0,7.1,5.7,13.5,16.5,18.5
		c0.4,0.2,0.8,0.3,1.3,0.3c1.1,0,2.2-0.6,2.7-1.7c0.7-1.5,0-3.3-1.5-4c-8.2-3.8-13-8.5-13-13v-35.1l59.3,26.3
		c0.4,0.2,0.8,0.3,1.2,0.3s0.8-0.1,1.2-0.3l37.3-16.6v38.3c0,0.3,0.1,0.6,0.1,0.8c-0.3,0.1-0.5,0.2-0.8,0.3
		c-11,4.4-25.7,6.8-41.3,6.8c-8.7,0-17-0.7-24.7-2.2c-1.6-0.3-3.2,0.8-3.5,2.4c-0.3,1.6,0.8,3.2,2.4,3.5c8.1,1.5,16.8,2.3,25.8,2.3
		c16.4,0,31.9-2.6,43.5-7.2c12.5-5,19.5-12,19.5-19.8v-34.7l31.7-14.1c1.1-0.5,1.8-1.6,1.8-2.7S734.8,594.7,733.7,594.3z M561,649.5
		c0,5-4,9-9,9s-9-4-9-9s4-9,9-9S561,644.5,561,649.5z M696,648.5c0,3.8-3.2,7.6-9,11v-38c0-0.3-0.1-0.6-0.2-0.9l9.2-4.1V648.5z
		 M697.8,609.1C697.8,609.1,697.8,609.1,697.8,609.1l-55.3,24.6L580.2,606c0,0,0,0,0,0l-20.3-9l82.6-36.7l82.6,36.7L697.8,609.1z"/>
	<path class="st0" d="M615.8,578.7l-38,16c-1.5,0.6-2.2,2.4-1.6,3.9c0.5,1.1,1.6,1.8,2.8,1.8c0.4,0,0.8-0.1,1.2-0.2l38-16
		c1.5-0.6,2.2-2.4,1.6-3.9C619.1,578.8,617.4,578.1,615.8,578.7z"/>
	<path class="st0" d="M624.2,578.7c0.5,1.1,1.6,1.8,2.8,1.8c0.4,0,0.8-0.1,1.2-0.2l17.5-7.5c1.5-0.7,2.2-2.4,1.6-3.9
		c-0.7-1.5-2.4-2.2-3.9-1.6l-17.5,7.5C624.3,575.4,623.6,577.2,624.2,578.7z"/>
</g>
<g>
	<path class="st1" d="M452.7,870.5c-0.1-1-0.6-2-1.5-2.5c-0.9-0.5-1.9-0.5-2.8,0c-0.6,0.2-5.2,1.3-14.6-4.4c-3.3-2.1-6.9-5-10.8-8.2
		c-9.5-7.8-20.2-16.7-33.3-17c-0.1,0-0.2,0-0.2,0h-0.2h-0.2c-0.1,0-0.1,0-0.2,0c-13.1,0.3-23.8,9.2-33.3,17
		c-3.8,3.2-7.4,6.1-10.8,8.2c-9.4,5.8-14,4.6-14.6,4.4c-0.9-0.5-1.9-0.5-2.8,0c-0.9,0.5-1.4,1.5-1.5,2.5c-2.2,33.7,3.8,62.7,18,86.1
		c0.9,1.4,2.7,1.9,4.1,1c1.4-0.9,1.9-2.7,1-4.1c-13-21.6-18.8-48.3-17.3-79.4c3.4,0.1,8.7-0.9,16.2-5.5c3.7-2.3,7.5-5.4,11.4-8.7
		c8.8-7.3,18.8-15.6,29.9-15.7c11.1,0.1,21.1,8.4,29.9,15.7c4,3.3,7.7,6.4,11.4,8.7c7.5,4.6,12.9,5.6,16.2,5.5
		c1.9,37.4-6.8,68.2-25.8,91.5c-13.2,16.3-27.4,23.6-31.7,25.6c-3.5-1.6-14.1-7-25.2-18.3c-1.2-1.2-3.1-1.2-4.2,0
		c-1.2,1.2-1.2,3.1,0,4.2c13.4,13.6,26,19.1,28.3,20.1c0.4,0.1,0.7,0.2,1.1,0.2c0.4,0,0.8-0.1,1.1-0.2c1.9-0.8,19.4-8.3,35.3-27.8
		C446.3,944.2,455.4,910.9,452.7,870.5z"/>
	<path class="st1" d="M379,941.3c0.1,0,0.2,0,0.3,0c3.1,0.1,6.1-1.2,8.3-3.3l40.6-40.6c2.2-2.2,3.3-5,3.3-8.1c0-3.1-1.2-5.9-3.3-8.1
		c-2.2-2.2-5-3.4-8.1-3.4s-5.9,1.2-8.1,3.4l-32.8,32.8l-5.5-5.5c-2.2-2.2-5-3.3-8.1-3.3c-3.1,0-5.9,1.2-8.1,3.3
		c-2.2,2.2-3.4,5-3.4,8.1c0,3.1,1.2,5.9,3.4,8.1l13.3,13.3C373.1,940.1,375.9,941.3,379,941.3z M360.3,916.6c0-1.4,0.6-2.8,1.6-3.8
		c1-1,2.4-1.6,3.8-1.6c1.5,0,2.8,0.6,3.8,1.6l7.6,7.6c1.2,1.2,3.1,1.2,4.2,0l34.9-34.9c1-1,2.4-1.6,3.8-1.6s2.8,0.6,3.8,1.6
		c1,1,1.6,2.4,1.6,3.8c0,1.5-0.6,2.8-1.6,3.8l-40.6,40.6c-1.1,1.1-2.5,1.6-4,1.6c-0.2,0-0.3,0-0.5,0c0.1,0,0.1,0,0.1,0
		c-1.5,0-2.8-0.6-3.8-1.6l-13.3-13.3C360.8,919.4,360.3,918,360.3,916.6z"/>
	<path class="st1" d="M391.6,978.3c-1.4,0.9-1.8,2.7-1,4.1c0.6,0.9,1.5,1.4,2.6,1.4c0.5,0,1.1-0.1,1.6-0.4
		c1.3-0.8,32.4-20.4,42.6-59.6c0.4-1.6-0.5-3.2-2.1-3.7c-1.6-0.4-3.2,0.5-3.7,2.1C422,959,392.1,978,391.6,978.3z"/>
	<path class="st1" d="M364.4,866.1c-1-1.3-2.9-1.5-4.2-0.5c-11.8,9.3-21.2,10.4-21.4,10.4c-1.6,0.2-2.9,1.6-2.7,3.3
		c0.1,1.6,1.5,2.7,3,2.7c0.1,0,0.2,0,0.3,0c0.4,0,11.1-1.1,24.5-11.6C365.2,869.2,365.4,867.4,364.4,866.1z"/>
</g>
<g>
	<path class="st1" d="M705,911.3c1.7,0,3-1.3,3-3v-30.6c0-12.6-10.2-22.8-22.8-22.8h-23.7c-3.9-8.1-12.2-13.4-21.3-13.4
		s-17.4,5.3-21.3,13.4h-23.7c-12.6,0-22.8,10.2-22.8,22.8v90.1c0,12.6,10.2,22.8,22.8,22.8h90.1c12.6,0,22.8-10.2,22.8-22.8v-37.2
		c0-1.7-1.3-3-3-3s-3,1.3-3,3v37.2c0,9.3-7.6,16.8-16.8,16.8h-90.1c-9.3,0-16.8-7.6-16.8-16.8v-90.1c0-9.3,7.6-16.8,16.8-16.8h25.7
		c1.3,0,2.4-0.8,2.8-2c2.5-6.9,9.2-11.5,16.5-11.5s14,4.6,16.5,11.5c0.4,1.2,1.6,2,2.8,2h25.7c9.3,0,16.8,7.6,16.8,16.8v30.6
		C702,909.9,703.3,911.3,705,911.3z"/>
	<path class="st1" d="M640.1,936.3c14.3,0,25.9-11.6,25.9-25.9c0-14.3-11.6-25.9-25.9-25.9c-14.3,0-25.9,11.6-25.9,25.9
		C614.2,924.6,625.8,936.3,640.1,936.3z M640.1,890.4c11,0,19.9,8.9,19.9,19.9c0,11-8.9,19.9-19.9,19.9c-11,0-19.9-8.9-19.9-19.9
		C620.2,899.3,629.1,890.4,640.1,890.4z"/>
	<path class="st1" d="M594.8,958.9v11.5c0,1.7,1.3,3,3,3h84.7c1.7,0,3-1.3,3-3v-11.5c0-0.8-0.3-1.5-0.9-2.1
		c-6.8-6.9-15.2-12.2-24.3-15.3c-6.5-2.2-13.2-3.3-20.1-3.3s-13.7,1.1-20.1,3.3c-9.1,3.1-17.5,8.4-24.3,15.3
		C595.1,957.4,594.8,958.1,594.8,958.9z M600.8,960.2c6-5.8,13.3-10.3,21.1-13c5.9-2,12-3,18.2-3s12.3,1,18.2,3
		c7.9,2.7,15.1,7.2,21.1,13v7.3h-78.7V960.2z"/>
	<path class="st1" d="M589.6,877.2c0-1.7-1.3-3-3-3s-3,1.3-3,3V916c0,1.7,1.3,3,3,3s3-1.3,3-3V877.2z"/>
	<path class="st1" d="M586.6,921.9c-1.7,0-3,1.3-3,3v11.9c0,1.7,1.3,3,3,3s3-1.3,3-3v-11.9C589.6,923.3,588.2,921.9,586.6,921.9z"/>
</g>
<g>
	<path class="st1" d="M953.4,927.4c-1.6-0.2-3.2,0.9-3.4,2.5c-4.8,33.3-33.9,58.4-67.6,58.4c-37.7,0-68.3-30.6-68.3-68.3
		c0-37.7,30.6-68.3,68.3-68.3c24.2,0,46.1,12.4,58.5,33.1c0.9,1.4,2.7,1.9,4.1,1s1.9-2.7,1-4.1c-13.6-22.5-37.4-36-63.7-36
		c-41,0-74.3,33.3-74.3,74.3s33.3,74.3,74.3,74.3c18,0,35.3-6.5,48.8-18.3c13.4-11.7,22.2-27.7,24.7-45.2
		C956.2,929.2,955.1,927.7,953.4,927.4z"/>
	<path class="st1" d="M882.4,862.3c1.7,0,3-1.3,3-3s-1.3-3-3-3c-35.1,0-63.7,28.6-63.7,63.7c0,1.7,1.3,3,3,3s3-1.3,3-3
		C824.7,888.2,850.6,862.3,882.4,862.3z"/>
	<path class="st1" d="M914.1,871.7c0.5,0.3,1.1,0.5,1.6,0.5c1,0,1.9-0.5,2.5-1.4c0.9-1.4,0.5-3.2-0.9-4.2
		c-5.9-3.9-12.3-6.7-19.1-8.4c-1.6-0.4-3.2,0.6-3.6,2.2c-0.4,1.6,0.6,3.2,2.2,3.6C902.9,865.6,908.7,868.2,914.1,871.7z"/>
	<path class="st1" d="M923.6,910.2c-0.4-1.1-1.3-1.9-2.4-2l-24.9-3.6l-11.1-22.6c-0.5-1-1.5-1.7-2.7-1.7s-2.2,0.6-2.7,1.7
		l-11.1,22.6l-24.9,3.6c-1.1,0.2-2.1,1-2.4,2c-0.4,1.1-0.1,2.3,0.8,3.1l18,17.6l-4.3,24.8c-0.2,1.1,0.3,2.3,1.2,2.9
		c0.9,0.7,2.1,0.8,3.2,0.2l22.3-11.7l22.3,11.7c0.4,0.2,0.9,0.3,1.4,0.3c0.6,0,1.2-0.2,1.8-0.6c0.9-0.7,1.4-1.8,1.2-2.9l-4.3-24.8
		l18-17.6C923.7,912.4,923.9,911.3,923.6,910.2z M899.5,927.6c-0.7,0.7-1,1.7-0.9,2.7l3.5,20.4l-18.3-9.6c-0.4-0.2-0.9-0.3-1.4-0.3
		s-1,0.1-1.4,0.3l-18.3,9.6l3.5-20.4c0.2-1-0.2-2-0.9-2.7l-14.8-14.4l20.4-3c1-0.1,1.8-0.8,2.3-1.6l9.1-18.5l9.1,18.5
		c0.4,0.9,1.3,1.5,2.3,1.6l20.4,3L899.5,927.6z"/>
</g>
<g>
	<path class="st0" d="M270.9,96.3c3,0,5.4-2.4,5.4-5.4V73.3c0-3-2.4-5.4-5.4-5.4h-59.2V42.4c0-6.9-5.6-12.6-12.6-12.6H89.3
		c-6.9,0-12.6,5.6-12.6,12.6v25.5H19.1c-3,0-5.4,2.4-5.4,5.4v174.8c0,7.9,6.5,14.4,14.4,14.4h233.8c7.9,0,14.4-6.5,14.4-14.4V126.3
		c0-3-2.4-5.4-5.4-5.4c-3,0-5.4,2.4-5.4,5.4v19.4h-53.9v-19.4c0-3-2.4-5.4-5.4-5.4c-3,0-5.4,2.4-5.4,5.4v19.4H87.5v-19.4
		c0-3-2.4-5.4-5.4-5.4s-5.4,2.4-5.4,5.4v19.4H24.5v-67h57.5h124.2h59.2v12.3C265.5,93.9,267.9,96.3,270.9,96.3z M76.7,156.5v9.4
		c0,3,2.4,5.4,5.4,5.4s5.4-2.4,5.4-5.4v-9.4h113.3v9.4c0,3,2.4,5.4,5.4,5.4c3,0,5.4-2.4,5.4-5.4v-9.4h53.9v91.6c0,2-1.6,3.6-3.6,3.6
		H28.1c-2,0-3.6-1.6-3.6-3.6v-91.6H76.7z M87.5,67.9V42.4c0-1,0.8-1.8,1.8-1.8h109.8c1,0,1.8,0.8,1.8,1.8v25.5H87.5z"/>
	<path class="st0" d="M82.1,198.3c3,0,5.4-2.4,5.4-5.4V182c0-3-2.4-5.4-5.4-5.4s-5.4,2.4-5.4,5.4v10.9
		C76.7,195.9,79.1,198.3,82.1,198.3z"/>
	<path class="st0" d="M206.1,198.3c3,0,5.4-2.4,5.4-5.4V182c0-3-2.4-5.4-5.4-5.4c-3,0-5.4,2.4-5.4,5.4v10.9
		C200.7,195.9,203.2,198.3,206.1,198.3z"/>
	<path class="st0" d="M35.3,85c-3,0-5.4,2.4-5.4,5.4s2.4,5.4,5.4,5.4h32.4c3,0,5.4-2.4,5.4-5.4S70.7,85,67.7,85H35.3z"/>
	<path class="st0" d="M141.4,243.2h106.1c3,0,5.4-2.4,5.4-5.4c0-3-2.4-5.4-5.4-5.4H141.4c-3,0-5.4,2.4-5.4,5.4
		C136,240.8,138.4,243.2,141.4,243.2z"/>
</g>
<g>
	<path class="st0" d="M947,640c1.7,0,3-1.3,3-3v-59.4c0-1.7-1.3-3-3-3h-32.8c-1.7,0-3,1.3-3,3v91.9c0,1.7,1.3,3,3,3H947
		c1.7,0,3-1.3,3-3v-13.2c0-1.7-1.3-3-3-3s-3,1.3-3,3v10.2h-26.8v-85.9H944V637C944,638.7,945.3,640,947,640z"/>
	<path class="st0" d="M897.8,550.5H865c-1.7,0-3,1.3-3,3v116c0,1.7,1.3,3,3,3h32.8c1.7,0,3-1.3,3-3v-116
		C900.8,551.8,899.5,550.5,897.8,550.5z M894.8,666.5H868v-110h26.8V666.5z"/>
	<path class="st0" d="M835,655.5c-1.7,0-3,1.3-3,3v13c0,1.7,1.3,3,3,3s3-1.3,3-3v-13C838,656.8,836.7,655.5,835,655.5z"/>
	<path class="st0" d="M837.6,557.9c-1.2-1.2-3.1-1.2-4.2,0l-15,15c-1.2,1.2-1.2,3.1,0,4.2c1.2,1.2,3.1,1.2,4.2,0l9.4-9.4v77.8
		c0,1.7,1.3,3,3,3s3-1.3,3-3v-78.8l10.4,10.4c0.6,0.6,1.4,0.9,2.1,0.9s1.5-0.3,2.1-0.9c1.2-1.2,1.2-3.1,0-4.2L837.6,557.9z"/>
	<path class="st0" d="M887.3,591.5c1.7,0,3-1.3,3-3v-25c0-1.7-1.3-3-3-3s-3,1.3-3,3v25C884.3,590.2,885.6,591.5,887.3,591.5z"/>
	<path class="st0" d="M932.3,587.5v25c0,1.7,1.3,3,3,3s3-1.3,3-3v-25c0-1.7-1.3-3-3-3S932.3,585.8,932.3,587.5z"/>
	<path class="st0" d="M887.3,614.5c1.7,0,3-1.3,3-3v-12c0-1.7-1.3-3-3-3s-3,1.3-3,3v12C884.3,613.2,885.6,614.5,887.3,614.5z"/>
</g>
<g>
	<path class="st1" d="M246.4,899.2c-0.5-3-2.2-5.6-4.7-7.4l-69.8-49c-3-2.1-7-2.1-10,0L144,855.4v-7.5c0-1.7-1.3-3-3-3h-19.3
		c-1.7,0-3,1.3-3,3v25.2l-26.6,18.6c-2.5,1.8-4.2,4.4-4.7,7.4c-0.5,3,0.2,6,1.9,8.5c1.8,2.5,4.4,4.2,7.4,4.7c0.7,0.1,1.3,0.2,2,0.2
		c1.3,0,2.5-0.2,3.7-0.6v74.5c0,1.7,1.4,3,3,3H229c1.7,0,3-1.3,3-3v-74.4c4.6,1.3,9.7-0.3,12.6-4.4
		C246.3,905.2,247,902.2,246.4,899.2z M124.8,850.9H138v8.7l-13.3,9.3V850.9z M181.6,983.5h-28.7v-47.3h28.7V983.5z M226,983.5
		h-38.4v-50.3c0-1.7-1.3-3-3-3h-34.7c-1.7,0-3,1.3-3,3v50.3h-38.4V909l39-28l19.5-13.7l41.6,29.2L226,909V983.5z M239.6,904.3
		c-1.7,2.4-5.1,3-7.6,1.3l-20-14l-43-31c-1-0.8-2.5-0.8-3.5,0L144,876l-42.1,29.6c-2.5,1.7-5.9,1.1-7.6-1.3
		c-0.8-1.2-1.2-2.6-0.9-4.1s1-2.7,2.2-3.5l69.8-49c0.9-0.7,2.2-0.7,3.2,0l69.8,49c1.2,0.8,2,2.1,2.2,3.5S240.5,903.1,239.6,904.3z"
		/>
	<path class="st1" d="M166.8,884c-9,0-16.3,7.3-16.3,16.3s7.3,16.3,16.3,16.3s16.3-7.3,16.3-16.3S175.8,884,166.8,884z M166.8,910.6
		c-5.7,0-10.3-4.6-10.3-10.3s4.6-10.3,10.3-10.3c5.7,0,10.3,4.6,10.3,10.3S172.5,910.6,166.8,910.6z"/>
	<path class="st1" d="M163.6,962.5c0,2.1-1.7,3.9-3.9,3.9c-2.1,0-3.9-1.7-3.9-3.9c0-2.1,1.8-3.9,3.9-3.9
		C161.8,958.6,163.6,960.4,163.6,962.5z"/>
	<path class="st1" d="M117.1,910.6c-1.7,0-3,1.3-3,3v38.9c0,1.7,1.3,3,3,3s3-1.3,3-3v-38.9C120.1,912,118.8,910.6,117.1,910.6z"/>
	<path class="st1" d="M117.1,959.5c-1.7,0-3,1.3-3,3v14.2c0,1.7,1.3,3,3,3s3-1.3,3-3v-14.2C120.1,960.9,118.8,959.5,117.1,959.5z"/>
</g>
<g>
	<path d="M98.7,713.6h1.2v6.5l5-6.5h1.1v8.4h-1.2v-6.5l-5,6.5h-1.1V713.6z"/>
	<path d="M115.7,715.7v6.4h-1v-4.6l-2.4,3.9h-0.5l-2.4-3.9v4.7h-1.1v-6.4h1.2l2.5,4.3l2.6-4.3H115.7z"/>
	<path d="M125.3,715.7v6.4h-1v-4.6l-2.4,3.9h-0.5l-2.4-3.9v4.7H118v-6.4h1.2l2.5,4.3l2.6-4.3H125.3z"/>
	<path d="M127.5,715.7h1.2v4.6l3.9-4.6h1v6.4h-1.2v-4.6l-3.9,4.6h-1.1V715.7z"/>
	<path d="M140.5,716.7H137v5.4h-1.2v-6.4h4.7V716.7z"/>
	<path d="M146.7,716c0.5,0.3,0.9,0.7,1.1,1.1c0.3,0.5,0.4,1.1,0.4,1.7c0,0.6-0.1,1.2-0.4,1.7c-0.3,0.5-0.7,0.9-1.1,1.1
		c-0.5,0.3-1,0.4-1.7,0.4c-0.5,0-0.9-0.1-1.3-0.3s-0.7-0.4-1-0.8v3.3h-1.2v-8.7h1.1v1c0.3-0.4,0.6-0.6,1-0.8
		c0.4-0.2,0.8-0.3,1.3-0.3C145.7,715.6,146.3,715.8,146.7,716z M146.1,720.8c0.3-0.2,0.6-0.5,0.8-0.8c0.2-0.3,0.3-0.7,0.3-1.2
		c0-0.4-0.1-0.8-0.3-1.2c-0.2-0.3-0.4-0.6-0.8-0.8c-0.3-0.2-0.7-0.3-1.1-0.3c-0.4,0-0.8,0.1-1.1,0.3c-0.3,0.2-0.6,0.4-0.8,0.8
		c-0.2,0.3-0.3,0.7-0.3,1.2c0,0.4,0.1,0.8,0.3,1.2c0.2,0.3,0.4,0.6,0.8,0.8s0.7,0.3,1.1,0.3C145.4,721.1,145.8,721,146.1,720.8z"/>
	<path d="M154.2,716.3c0.5,0.4,0.7,1.1,0.7,1.9v3.8h-1.1v-0.8c-0.2,0.3-0.5,0.5-0.8,0.7c-0.4,0.2-0.8,0.2-1.3,0.2
		c-0.7,0-1.3-0.2-1.7-0.5c-0.4-0.3-0.6-0.8-0.6-1.4s0.2-1,0.6-1.4s1.1-0.5,1.9-0.5h1.8v-0.2c0-0.5-0.1-0.9-0.4-1.1
		c-0.3-0.3-0.7-0.4-1.3-0.4c-0.4,0-0.7,0.1-1.1,0.2s-0.7,0.3-0.9,0.5l-0.5-0.9c0.3-0.3,0.7-0.5,1.2-0.6s0.9-0.2,1.5-0.2
		C153.1,715.6,153.7,715.8,154.2,716.3z M153.1,720.9c0.3-0.2,0.6-0.5,0.7-0.8v-0.9H152c-1,0-1.5,0.3-1.5,1c0,0.3,0.1,0.6,0.4,0.8
		s0.6,0.3,1,0.3S152.7,721.1,153.1,720.9z"/>
	<path d="M163.8,721v2.5h-1.1V722H157v-6.4h1.2v5.4h3.5v-5.4h1.2v5.4H163.8z"/>
	<path d="M165.3,715.7h1.2v4.6l3.9-4.6h1v6.4h-1.2v-4.6l-3.9,4.6h-1.1V715.7z"/>
	<path d="M178.7,715.7v6.4h-1v-2h-1.8h-0.1l-1.4,2h-1.2l1.5-2.2c-0.5-0.1-0.8-0.4-1.1-0.7c-0.3-0.3-0.4-0.7-0.4-1.2
		c0-0.7,0.2-1.3,0.7-1.7s1.2-0.6,2.1-0.6H178.7z M174.7,718.9c0.3,0.2,0.7,0.3,1.2,0.3h1.8v-2.5h-1.7c-1.1,0-1.7,0.4-1.7,1.3
		C174.3,718.4,174.4,718.7,174.7,718.9z"/>
</g>
<g>
	<path d="M105.2,1043.4c0.3,0.3,0.4,0.8,0.4,1.3c0,0.7-0.3,1.3-0.8,1.7c-0.5,0.4-1.3,0.6-2.3,0.6h-3.8v-8.4h3.6
		c0.9,0,1.6,0.2,2.2,0.6c0.5,0.4,0.8,0.9,0.8,1.6c0,0.5-0.1,0.8-0.3,1.2s-0.5,0.6-1,0.7C104.5,1042.8,104.9,1043.1,105.2,1043.4z
		 M99.9,1042.3h2.3c0.6,0,1-0.1,1.3-0.3c0.3-0.2,0.5-0.6,0.5-1c0-0.4-0.2-0.8-0.5-1s-0.8-0.4-1.3-0.4h-2.3V1042.3z M104.4,1044.7
		c0-0.5-0.2-0.8-0.5-1.1c-0.3-0.2-0.8-0.3-1.4-0.3h-2.6v2.8h2.6C103.8,1046.1,104.4,1045.6,104.4,1044.7z"/>
	<path d="M114.9,1038.6v8.4h-1.2v-3.7h-4.8v3.7h-1.2v-8.4h1.2v3.6h4.8v-3.6H114.9z"/>
	<path d="M124.6,1043.3H123v3.7h-1.2v-3.7h-1.6l-2.4,3.7h-1.4l2.8-4.4l-2.6-4h1.3l2.2,3.6h1.6v-3.6h1.2v3.6h1.6l2.3-3.6h1.3
		l-2.6,4.1l2.8,4.3h-1.4L124.6,1043.3z"/>
</g>
<g>
	<path d="M335.9,1038.6v8.4h-1.2v-3.3c-0.9,0.3-1.7,0.5-2.5,0.5c-1,0-1.8-0.2-2.4-0.7s-0.8-1.2-0.8-2.1v-2.7h1.2v2.6
		c0,0.6,0.2,1.1,0.6,1.4s0.9,0.5,1.6,0.5c0.8,0,1.6-0.2,2.3-0.5v-4H335.9z"/>
	<path d="M344.1,1044.2h-5.2c0.1,0.6,0.3,1,0.7,1.4c0.4,0.3,0.9,0.5,1.6,0.5c0.8,0,1.4-0.3,1.8-0.8l0.6,0.7
		c-0.3,0.3-0.6,0.6-1.1,0.8c-0.4,0.2-0.9,0.3-1.4,0.3c-0.7,0-1.3-0.1-1.8-0.4c-0.5-0.3-0.9-0.7-1.2-1.2c-0.3-0.5-0.4-1.1-0.4-1.7
		c0-0.6,0.1-1.2,0.4-1.7s0.7-0.9,1.1-1.2c0.5-0.3,1-0.4,1.6-0.4c0.6,0,1.1,0.1,1.6,0.4c0.5,0.3,0.8,0.7,1.1,1.2s0.4,1.1,0.4,1.7
		C344.1,1044,344.1,1044.1,344.1,1044.2z M339.6,1042.1c-0.4,0.3-0.6,0.8-0.7,1.3h4.1c-0.1-0.5-0.3-1-0.7-1.3s-0.8-0.5-1.4-0.5
		C340.4,1041.6,339.9,1041.8,339.6,1042.1z"/>
	<path d="M346.9,1046.7c-0.5-0.3-0.9-0.7-1.2-1.2s-0.4-1.1-0.4-1.7c0-0.6,0.1-1.2,0.4-1.7s0.7-0.9,1.2-1.2c0.5-0.3,1.1-0.4,1.7-0.4
		c0.6,0,1.1,0.1,1.5,0.3c0.5,0.2,0.8,0.6,1,1l-0.9,0.6c-0.2-0.3-0.4-0.5-0.7-0.7s-0.6-0.2-1-0.2c-0.4,0-0.8,0.1-1.1,0.3
		c-0.3,0.2-0.6,0.4-0.8,0.8s-0.3,0.7-0.3,1.2c0,0.4,0.1,0.8,0.3,1.2s0.4,0.6,0.8,0.8s0.7,0.3,1.1,0.3c0.4,0,0.7-0.1,1-0.2
		s0.5-0.4,0.7-0.7l0.9,0.6c-0.2,0.4-0.6,0.8-1,1c-0.5,0.2-1,0.4-1.5,0.4C348,1047.1,347.4,1047,346.9,1046.7z"/>
	<path d="M357.4,1041.7h-2.3v5.4h-1.2v-5.4h-2.3v-1h5.8V1041.7z"/>
	<path d="M358.6,1040.7h1.2v2.7h3.6v-2.7h1.2v6.4h-1.2v-2.7h-3.6v2.7h-1.2V1040.7z"/>
	<path d="M367.8,1046.7c-0.5-0.3-0.9-0.7-1.2-1.2c-0.3-0.5-0.4-1.1-0.4-1.7c0-0.6,0.1-1.2,0.4-1.7c0.3-0.5,0.7-0.9,1.2-1.2
		c0.5-0.3,1.1-0.4,1.7-0.4s1.2,0.1,1.7,0.4c0.5,0.3,0.9,0.7,1.2,1.2c0.3,0.5,0.4,1,0.4,1.7c0,0.6-0.1,1.2-0.4,1.7
		c-0.3,0.5-0.7,0.9-1.2,1.2c-0.5,0.3-1.1,0.4-1.7,0.4S368.3,1047,367.8,1046.7z M370.6,1045.8c0.3-0.2,0.6-0.5,0.8-0.8
		c0.2-0.3,0.3-0.7,0.3-1.2c0-0.4-0.1-0.8-0.3-1.2c-0.2-0.3-0.4-0.6-0.8-0.8c-0.3-0.2-0.7-0.3-1.1-0.3c-0.4,0-0.8,0.1-1.1,0.3
		c-0.3,0.2-0.6,0.4-0.8,0.8s-0.3,0.7-0.3,1.2c0,0.4,0.1,0.8,0.3,1.2s0.4,0.6,0.8,0.8c0.3,0.2,0.7,0.3,1.1,0.3
		C369.9,1046.1,370.2,1046,370.6,1045.8z"/>
	<path d="M375.5,1046.7c-0.5-0.3-0.9-0.7-1.2-1.2s-0.4-1.1-0.4-1.7c0-0.6,0.1-1.2,0.4-1.7s0.7-0.9,1.2-1.2c0.5-0.3,1.1-0.4,1.7-0.4
		c0.6,0,1.1,0.1,1.5,0.3c0.5,0.2,0.8,0.6,1,1l-0.9,0.6c-0.2-0.3-0.4-0.5-0.7-0.7s-0.6-0.2-1-0.2c-0.4,0-0.8,0.1-1.1,0.3
		c-0.3,0.2-0.6,0.4-0.8,0.8s-0.3,0.7-0.3,1.2c0,0.4,0.1,0.8,0.3,1.2s0.4,0.6,0.8,0.8s0.7,0.3,1.1,0.3c0.4,0,0.7-0.1,1-0.2
		s0.5-0.4,0.7-0.7l0.9,0.6c-0.2,0.4-0.6,0.8-1,1c-0.5,0.2-1,0.4-1.5,0.4C376.5,1047.1,376,1047,375.5,1046.7z"/>
	<path d="M385.9,1041.7h-2.3v5.4h-1.2v-5.4h-2.3v-1h5.8V1041.7z"/>
	<path d="M391.9,1043.4c0.4,0.4,0.6,0.9,0.6,1.5c0,0.7-0.2,1.2-0.7,1.6c-0.5,0.4-1.1,0.6-2,0.5l-2.8,0v-6.4h1.2v2.1l1.8,0
		C390.9,1042.9,391.5,1043,391.9,1043.4z M391,1045.9c0.3-0.2,0.4-0.5,0.4-1c0-0.4-0.1-0.7-0.4-0.9c-0.3-0.2-0.7-0.3-1.2-0.3l-1.5,0
		v2.5l1.5,0C390.3,1046.2,390.7,1046.1,391,1045.9z"/>
</g>
<g>
	<path d="M570.7,1038.6h1.2v6.5l5-6.5h1.1v8.4h-1.2v-6.5l-5,6.5h-1.1V1038.6z"/>
	<path d="M580.4,1040.7h1.2v2.7h3.6v-2.7h1.2v6.4h-1.2v-2.7h-3.6v2.7h-1.2V1040.7z"/>
	<path d="M595,1046v2.5h-1.1v-1.5h-5.3v1.5h-1.1v-2.5h0.3c0.4,0,0.7-0.3,0.8-0.9c0.2-0.6,0.3-1.3,0.3-2.3l0.1-2.1h4.9v5.4H595z
		 M589.9,1044.9c-0.1,0.5-0.3,0.9-0.5,1.1h3.6v-4.3h-2.8l-0.1,1.2C590,1043.7,590,1044.4,589.9,1044.9z"/>
	<path d="M596.5,1040.7h1.2v4.6l3.9-4.6h1v6.4h-1.2v-4.6l-3.9,4.6h-1.1V1040.7z"/>
	<path d="M610.4,1045.3c0,0.6-0.2,1-0.6,1.3s-1,0.5-1.9,0.5h-3.1v-6.4h3c0.8,0,1.3,0.1,1.8,0.4c0.4,0.3,0.6,0.7,0.6,1.2
		c0,0.3-0.1,0.6-0.3,0.9s-0.4,0.4-0.8,0.6C610,1044,610.4,1044.5,610.4,1045.3z M606,1043.4h1.7c0.4,0,0.8-0.1,1-0.2
		c0.2-0.2,0.3-0.4,0.3-0.7c0-0.6-0.4-0.9-1.3-0.9H606V1043.4z M608.9,1045.9c0.2-0.2,0.4-0.4,0.4-0.7c0-0.3-0.1-0.6-0.3-0.7
		c-0.2-0.2-0.6-0.2-1-0.2H606v1.9h1.8C608.3,1046.2,608.7,1046.1,608.9,1045.9z"/>
	<path d="M612.2,1040.7h1.2v4.6l3.9-4.6h1v6.4h-1.2v-4.6l-3.9,4.6h-1.1V1040.7z"/>
	<path d="M627,1046v2.5h-1.1v-1.5h-5.3v1.5h-1.1v-2.5h0.3c0.4,0,0.7-0.3,0.8-0.9s0.3-1.3,0.3-2.3l0.1-2.1h4.9v5.4H627z
		 M621.9,1044.9c-0.1,0.5-0.3,0.9-0.5,1.1h3.6v-4.3h-2.8l-0.1,1.2C622,1043.7,622,1044.4,621.9,1044.9z"/>
	<path d="M634.2,1040.7l-3.1,7c-0.3,0.6-0.6,1.1-1,1.4c-0.4,0.3-0.8,0.4-1.3,0.4c-0.3,0-0.6-0.1-0.9-0.2c-0.3-0.1-0.5-0.2-0.7-0.4
		l0.5-0.9c0.3,0.3,0.7,0.5,1.1,0.5c0.3,0,0.5-0.1,0.7-0.2c0.2-0.1,0.4-0.4,0.5-0.8l0.2-0.4l-2.8-6.3h1.2l2.2,5.1l2.2-5.1H634.2z"/>
	<path d="M639.5,1041.3c0.5,0.4,0.7,1.1,0.7,1.9v3.8h-1.1v-0.8c-0.2,0.3-0.5,0.5-0.8,0.7c-0.4,0.2-0.8,0.2-1.3,0.2
		c-0.7,0-1.3-0.2-1.7-0.5c-0.4-0.3-0.6-0.8-0.6-1.4s0.2-1,0.6-1.4s1.1-0.5,1.9-0.5h1.8v-0.2c0-0.5-0.1-0.9-0.4-1.1
		c-0.3-0.3-0.7-0.4-1.3-0.4c-0.4,0-0.7,0.1-1.1,0.2c-0.4,0.1-0.7,0.3-0.9,0.5l-0.5-0.9c0.3-0.3,0.7-0.5,1.2-0.6
		c0.5-0.1,0.9-0.2,1.5-0.2C638.3,1040.6,639,1040.8,639.5,1041.3z M638.3,1045.9c0.3-0.2,0.6-0.5,0.7-0.8v-0.9h-1.8
		c-1,0-1.5,0.3-1.5,1c0,0.3,0.1,0.6,0.4,0.8s0.6,0.3,1,0.3S638,1046.1,638.3,1045.9z"/>
	<path d="M647.7,1040.7v6.4h-1.2v-5.4h-2.7l-0.1,1.4c0,0.9-0.1,1.6-0.2,2.1s-0.3,1-0.6,1.4s-0.6,0.5-1.1,0.5c-0.2,0-0.4,0-0.7-0.1
		l0.1-1c0.1,0,0.2,0,0.3,0c0.3,0,0.6-0.1,0.7-0.4c0.2-0.3,0.3-0.6,0.3-1c0-0.4,0.1-0.9,0.1-1.6l0.1-2.4H647.7z"/>
	<path d="M654.7,1043.4c0.4,0.4,0.6,0.9,0.6,1.5c0,0.7-0.2,1.2-0.7,1.6c-0.5,0.4-1.1,0.6-2,0.5l-2.8,0v-6.4h1.2v2.1l1.8,0
		C653.7,1042.9,654.3,1043,654.7,1043.4z M653.8,1045.9c0.3-0.2,0.4-0.5,0.4-1c0-0.4-0.1-0.7-0.4-0.9c-0.3-0.2-0.7-0.3-1.2-0.3
		l-1.5,0v2.5l1.5,0C653.1,1046.2,653.5,1046.1,653.8,1045.9z"/>
	<path d="M656.8,1040.7h1.2v2.7h3.6v-2.7h1.2v6.4h-1.2v-2.7H658v2.7h-1.2V1040.7z"/>
	<path d="M669.7,1043.4c0.4,0.4,0.6,0.9,0.6,1.5c0,0.7-0.2,1.2-0.7,1.6c-0.5,0.4-1.1,0.6-2,0.5l-2.7,0v-6.4h1.2v2.1l1.7,0
		C668.7,1042.9,669.3,1043,669.7,1043.4z M668.8,1045.9c0.3-0.2,0.4-0.5,0.4-1c0-0.4-0.1-0.7-0.4-0.9s-0.7-0.3-1.2-0.3l-1.4,0v2.5
		l1.4,0C668.1,1046.2,668.5,1046.1,668.8,1045.9z M671.3,1040.7h1.2v6.4h-1.2V1040.7z"/>
	<path d="M674.7,1040.7h1.2v4.6l3.9-4.6h1v6.4h-1.2v-4.6l-3.9,4.6h-1.1V1040.7z M676.3,1039.4c-0.3-0.3-0.5-0.7-0.5-1.2h0.8
		c0,0.3,0.1,0.5,0.3,0.7c0.2,0.2,0.5,0.3,0.8,0.3s0.6-0.1,0.8-0.3c0.2-0.2,0.3-0.4,0.3-0.7h0.8c0,0.5-0.2,0.9-0.5,1.2
		c-0.3,0.3-0.8,0.4-1.4,0.4C677.1,1039.9,676.6,1039.7,676.3,1039.4z"/>
	<path d="M576.4,1055.1v6.4h-1.2v-5.4h-3.6v5.4h-1.2v-6.4H576.4z"/>
	<path d="M579.7,1061.1c-0.5-0.3-0.9-0.7-1.2-1.2c-0.3-0.5-0.4-1.1-0.4-1.7s0.1-1.2,0.4-1.7s0.7-0.9,1.2-1.2
		c0.5-0.3,1.1-0.4,1.7-0.4s1.2,0.1,1.7,0.4c0.5,0.3,0.9,0.7,1.2,1.2s0.4,1,0.4,1.7s-0.1,1.2-0.4,1.7c-0.3,0.5-0.7,0.9-1.2,1.2
		s-1.1,0.4-1.7,0.4S580.2,1061.4,579.7,1061.1z M582.5,1060.2c0.3-0.2,0.6-0.5,0.8-0.8c0.2-0.3,0.3-0.7,0.3-1.2s-0.1-0.8-0.3-1.2
		c-0.2-0.3-0.4-0.6-0.8-0.8c-0.3-0.2-0.7-0.3-1.1-0.3s-0.8,0.1-1.1,0.3c-0.3,0.2-0.6,0.4-0.8,0.8c-0.2,0.3-0.3,0.7-0.3,1.2
		s0.1,0.8,0.3,1.2c0.2,0.3,0.4,0.6,0.8,0.8c0.3,0.2,0.7,0.3,1.1,0.3S582.1,1060.4,582.5,1060.2z"/>
	<path d="M592.7,1060.4v2.5h-1.1v-1.5h-5.3v1.5h-1.1v-2.5h0.3c0.4,0,0.7-0.3,0.8-0.9c0.2-0.6,0.3-1.3,0.3-2.3l0.1-2.1h4.9v5.4H592.7
		z M587.6,1059.3c-0.1,0.5-0.3,0.9-0.5,1.1h3.6v-4.3h-2.8l-0.1,1.2C587.8,1058.1,587.7,1058.8,587.6,1059.3z"/>
	<path d="M598.2,1061.4l-1.8-2.4l-1.9,2.4h-1.3l2.5-3.3l-2.4-3.1h1.3l1.8,2.3l1.7-2.3h1.3l-2.4,3.1l2.5,3.3H598.2z"/>
	<path d="M601.5,1061.1c-0.5-0.3-0.9-0.7-1.2-1.2c-0.3-0.5-0.4-1.1-0.4-1.7s0.1-1.2,0.4-1.7c0.3-0.5,0.7-0.9,1.2-1.2
		c0.5-0.3,1.1-0.4,1.7-0.4s1.2,0.1,1.7,0.4c0.5,0.3,0.9,0.7,1.2,1.2c0.3,0.5,0.4,1,0.4,1.7s-0.1,1.2-0.4,1.7
		c-0.3,0.5-0.7,0.9-1.2,1.2s-1.1,0.4-1.7,0.4S602,1061.4,601.5,1061.1z M604.3,1060.2c0.3-0.2,0.6-0.5,0.8-0.8
		c0.2-0.3,0.3-0.7,0.3-1.2s-0.1-0.8-0.3-1.2c-0.2-0.3-0.4-0.6-0.8-0.8c-0.3-0.2-0.7-0.3-1.1-0.3c-0.4,0-0.8,0.1-1.1,0.3
		c-0.3,0.2-0.6,0.4-0.8,0.8c-0.2,0.3-0.3,0.7-0.3,1.2s0.1,0.8,0.3,1.2c0.2,0.3,0.4,0.6,0.8,0.8c0.3,0.2,0.7,0.3,1.1,0.3
		C603.7,1060.5,604,1060.4,604.3,1060.2z"/>
	<path d="M614.6,1060.4v2.5h-1.1v-1.5h-5.3v1.5h-1.1v-2.5h0.3c0.4,0,0.7-0.3,0.8-0.9c0.2-0.6,0.3-1.3,0.3-2.3l0.1-2.1h4.9v5.4H614.6
		z M609.5,1059.3c-0.1,0.5-0.3,0.9-0.5,1.1h3.6v-4.3h-2.8l-0.1,1.2C609.7,1058.1,609.6,1058.8,609.5,1059.3z"/>
</g>
<g>
	<path d="M844.7,1046v2.9h-1.1v-1.8h-6.9l0,1.8h-1.1l0-2.9h0.4c0.5,0,0.9-0.5,1.1-1.3c0.2-0.8,0.3-1.9,0.4-3.4l0.1-2.7h5.9v7.4
		H844.7z M838.3,1044.4c-0.1,0.8-0.4,1.3-0.7,1.6h4.7v-6.3h-3.7l-0.1,1.8C838.5,1042.6,838.4,1043.6,838.3,1044.4z"/>
	<path d="M847,1046.7c-0.5-0.3-0.9-0.7-1.2-1.2c-0.3-0.5-0.4-1.1-0.4-1.7c0-0.6,0.1-1.2,0.4-1.7c0.3-0.5,0.7-0.9,1.2-1.2
		c0.5-0.3,1.1-0.4,1.7-0.4s1.2,0.1,1.7,0.4c0.5,0.3,0.9,0.7,1.2,1.2c0.3,0.5,0.4,1,0.4,1.7c0,0.6-0.1,1.2-0.4,1.7
		c-0.3,0.5-0.7,0.9-1.2,1.2c-0.5,0.3-1.1,0.4-1.7,0.4S847.5,1047,847,1046.7z M849.8,1045.8c0.3-0.2,0.6-0.5,0.8-0.8
		s0.3-0.7,0.3-1.2c0-0.4-0.1-0.8-0.3-1.2s-0.4-0.6-0.8-0.8c-0.3-0.2-0.7-0.3-1.1-0.3c-0.4,0-0.8,0.1-1.1,0.3
		c-0.3,0.2-0.6,0.4-0.8,0.8c-0.2,0.3-0.3,0.7-0.3,1.2c0,0.4,0.1,0.8,0.3,1.2c0.2,0.3,0.4,0.6,0.8,0.8c0.3,0.2,0.7,0.3,1.1,0.3
		C849.1,1046.1,849.5,1046,849.8,1045.8z"/>
	<path d="M854.7,1046.7c-0.5-0.3-0.9-0.7-1.2-1.2c-0.3-0.5-0.4-1.1-0.4-1.7c0-0.6,0.1-1.2,0.4-1.7c0.3-0.5,0.7-0.9,1.2-1.2
		c0.5-0.3,1.1-0.4,1.7-0.4c0.6,0,1.1,0.1,1.5,0.3c0.5,0.2,0.8,0.6,1,1l-0.9,0.6c-0.2-0.3-0.4-0.5-0.7-0.7s-0.6-0.2-1-0.2
		c-0.4,0-0.8,0.1-1.1,0.3c-0.3,0.2-0.6,0.4-0.8,0.8s-0.3,0.7-0.3,1.2c0,0.4,0.1,0.8,0.3,1.2s0.4,0.6,0.8,0.8s0.7,0.3,1.1,0.3
		c0.4,0,0.7-0.1,1-0.2s0.5-0.4,0.7-0.7l0.9,0.6c-0.2,0.4-0.6,0.8-1,1c-0.5,0.2-1,0.4-1.5,0.4C855.8,1047.1,855.3,1047,854.7,1046.7z
		"/>
	<path d="M865.2,1041.7h-2.3v5.4h-1.2v-5.4h-2.3v-1h5.8V1041.7z"/>
	<path d="M872.1,1040.7l-3.1,7c-0.3,0.6-0.6,1.1-1,1.4s-0.8,0.4-1.3,0.4c-0.3,0-0.6-0.1-0.9-0.2c-0.3-0.1-0.5-0.2-0.7-0.4l0.5-0.9
		c0.3,0.3,0.7,0.5,1.1,0.5c0.3,0,0.5-0.1,0.7-0.2c0.2-0.1,0.4-0.4,0.5-0.8l0.2-0.4l-2.8-6.3h1.2l2.2,5.1l2.2-5.1H872.1z"/>
	<path d="M879.2,1040.7v6.4H878v-5.4h-3.6v5.4h-1.2v-6.4H879.2z"/>
	<path d="M881.4,1040.7h1.2v2.7h3.6v-2.7h1.2v6.4h-1.2v-2.7h-3.6v2.7h-1.2V1040.7z"/>
	<path d="M890.6,1046.7c-0.5-0.3-0.9-0.7-1.2-1.2s-0.4-1.1-0.4-1.7c0-0.6,0.1-1.2,0.4-1.7s0.7-0.9,1.2-1.2c0.5-0.3,1.1-0.4,1.7-0.4
		s1.2,0.1,1.7,0.4c0.5,0.3,0.9,0.7,1.2,1.2s0.4,1,0.4,1.7c0,0.6-0.1,1.2-0.4,1.7s-0.7,0.9-1.2,1.2c-0.5,0.3-1.1,0.4-1.7,0.4
		S891.1,1047,890.6,1046.7z M893.4,1045.8c0.3-0.2,0.6-0.5,0.8-0.8c0.2-0.3,0.3-0.7,0.3-1.2c0-0.4-0.1-0.8-0.3-1.2
		c-0.2-0.3-0.4-0.6-0.8-0.8c-0.3-0.2-0.7-0.3-1.1-0.3s-0.8,0.1-1.1,0.3c-0.3,0.2-0.6,0.4-0.8,0.8c-0.2,0.3-0.3,0.7-0.3,1.2
		c0,0.4,0.1,0.8,0.3,1.2c0.2,0.3,0.4,0.6,0.8,0.8s0.7,0.3,1.1,0.3S893.1,1046,893.4,1045.8z"/>
	<path d="M898.3,1046.7c-0.5-0.3-0.9-0.7-1.2-1.2c-0.3-0.5-0.4-1.1-0.4-1.7c0-0.6,0.1-1.2,0.4-1.7c0.3-0.5,0.7-0.9,1.2-1.2
		c0.5-0.3,1.1-0.4,1.7-0.4c0.6,0,1.1,0.1,1.5,0.3c0.5,0.2,0.8,0.6,1,1l-0.9,0.6c-0.2-0.3-0.4-0.5-0.7-0.7s-0.6-0.2-1-0.2
		c-0.4,0-0.8,0.1-1.1,0.3c-0.3,0.2-0.6,0.4-0.8,0.8s-0.3,0.7-0.3,1.2c0,0.4,0.1,0.8,0.3,1.2s0.4,0.6,0.8,0.8s0.7,0.3,1.1,0.3
		c0.4,0,0.7-0.1,1-0.2s0.5-0.4,0.7-0.7l0.9,0.6c-0.2,0.4-0.6,0.8-1,1c-0.5,0.2-1,0.4-1.5,0.4C899.4,1047.1,898.8,1047,898.3,1046.7z
		"/>
	<path d="M908.8,1041.7h-2.3v5.4h-1.2v-5.4H903v-1h5.8V1041.7z"/>
	<path d="M914.7,1043.4c0.4,0.4,0.6,0.9,0.6,1.5c0,0.7-0.2,1.2-0.7,1.6c-0.5,0.4-1.1,0.6-2,0.5l-2.8,0v-6.4h1.2v2.1l1.8,0
		C913.7,1042.9,914.3,1043,914.7,1043.4z M913.8,1045.9c0.3-0.2,0.4-0.5,0.4-1c0-0.4-0.1-0.7-0.4-0.9s-0.7-0.3-1.2-0.3l-1.5,0v2.5
		l1.5,0C913.1,1046.2,913.5,1046.1,913.8,1045.9z"/>
</g>
<g>
	<path d="M319.7,713.6h6.3v1h-5.1v2.4h2.6c1,0,1.8,0.2,2.3,0.6s0.8,1,0.8,1.8c0,0.8-0.3,1.5-0.8,1.9c-0.6,0.4-1.4,0.7-2.4,0.7h-3.6
		V713.6z M323.3,721.1c0.7,0,1.2-0.1,1.6-0.4c0.4-0.3,0.5-0.7,0.5-1.2c0-1-0.7-1.5-2.1-1.5h-2.4v3.1H323.3z"/>
	<path d="M328.3,715.7h1.2v4.6l3.9-4.6h1v6.4h-1.2v-4.6l-3.9,4.6h-1.1V715.7z"/>
	<path d="M340.9,719.3c0.2,0.2,0.3,0.6,0.3,0.9c0,0.4-0.1,0.7-0.4,1c-0.3,0.3-0.6,0.5-1.1,0.7c-0.5,0.2-1,0.2-1.5,0.2
		c-0.5,0-0.9-0.1-1.4-0.2c-0.5-0.1-0.9-0.3-1.2-0.5l0.3-0.9c0.3,0.2,0.7,0.3,1,0.5s0.8,0.2,1.2,0.2c0.5,0,1-0.1,1.3-0.3
		c0.3-0.2,0.5-0.4,0.5-0.8c0-0.3-0.1-0.5-0.4-0.7c-0.3-0.2-0.6-0.2-1.1-0.2h-1.2v-0.8h1.1c0.4,0,0.8-0.1,1-0.2s0.4-0.4,0.4-0.6
		c0-0.3-0.1-0.5-0.4-0.7c-0.3-0.2-0.7-0.2-1.2-0.2c-0.6,0-1.3,0.2-2,0.5l-0.3-0.9c0.8-0.4,1.6-0.6,2.4-0.6c0.5,0,1,0.1,1.4,0.2
		c0.4,0.1,0.7,0.3,1,0.6c0.2,0.3,0.3,0.6,0.3,0.9c0,0.3-0.1,0.6-0.3,0.8s-0.5,0.4-0.8,0.6C340.4,718.8,340.7,719,340.9,719.3z"/>
	<path d="M343,715.7h1.2v2.7h3.6v-2.7h1.2v6.4h-1.2v-2.7h-3.6v2.7H343V715.7z"/>
	<path d="M356.9,719.2h-5.2c0.1,0.6,0.3,1,0.7,1.4c0.4,0.3,0.9,0.5,1.6,0.5c0.8,0,1.4-0.3,1.8-0.8l0.6,0.7c-0.3,0.3-0.6,0.6-1.1,0.8
		c-0.4,0.2-0.9,0.3-1.4,0.3c-0.7,0-1.3-0.1-1.8-0.4c-0.5-0.3-0.9-0.7-1.2-1.2c-0.3-0.5-0.4-1.1-0.4-1.7c0-0.6,0.1-1.2,0.4-1.7
		c0.3-0.5,0.7-0.9,1.1-1.2c0.5-0.3,1-0.4,1.6-0.4c0.6,0,1.1,0.1,1.6,0.4c0.5,0.3,0.8,0.7,1.1,1.2c0.3,0.5,0.4,1.1,0.4,1.7
		C356.9,719,356.9,719.1,356.9,719.2z M352.4,717.1c-0.4,0.3-0.6,0.8-0.7,1.3h4.1c-0.1-0.5-0.3-1-0.7-1.3c-0.4-0.3-0.8-0.5-1.4-0.5
		C353.3,716.6,352.8,716.8,352.4,717.1z"/>
	<path d="M359.8,721.7c-0.5-0.3-0.9-0.7-1.2-1.2c-0.3-0.5-0.4-1.1-0.4-1.7s0.1-1.2,0.4-1.7s0.7-0.9,1.2-1.2c0.5-0.3,1.1-0.4,1.7-0.4
		c0.6,0,1.1,0.1,1.5,0.3c0.5,0.2,0.8,0.6,1,1l-0.9,0.6c-0.2-0.3-0.4-0.5-0.7-0.7c-0.3-0.2-0.6-0.2-1-0.2c-0.4,0-0.8,0.1-1.1,0.3
		c-0.3,0.2-0.6,0.4-0.8,0.8c-0.2,0.3-0.3,0.7-0.3,1.2c0,0.4,0.1,0.8,0.3,1.2c0.2,0.3,0.4,0.6,0.8,0.8s0.7,0.3,1.1,0.3
		c0.4,0,0.7-0.1,1-0.2c0.3-0.2,0.5-0.4,0.7-0.7l0.9,0.6c-0.2,0.4-0.6,0.8-1,1c-0.5,0.2-1,0.4-1.5,0.4
		C360.9,722.1,360.3,722,359.8,721.7z"/>
</g>
<g>
	<path d="M555.2,721.6c-0.7-0.4-1.2-0.9-1.6-1.5c-0.4-0.7-0.6-1.4-0.6-2.2c0-0.8,0.2-1.5,0.6-2.2c0.4-0.7,0.9-1.2,1.6-1.5
		s1.4-0.6,2.3-0.6c0.8,0,1.6,0.2,2.3,0.6s1.2,0.9,1.6,1.5c0.4,0.7,0.6,1.4,0.6,2.2c0,0.8-0.2,1.6-0.6,2.2c-0.4,0.7-0.9,1.2-1.6,1.5
		s-1.4,0.6-2.3,0.6C556.6,722.1,555.9,722,555.2,721.6z M559.1,720.7c0.5-0.3,0.9-0.7,1.2-1.2c0.3-0.5,0.4-1,0.4-1.7
		c0-0.6-0.1-1.2-0.4-1.6c-0.3-0.5-0.7-0.9-1.2-1.2c-0.5-0.3-1-0.4-1.7-0.4s-1.2,0.1-1.7,0.4c-0.5,0.3-0.9,0.7-1.2,1.2
		c-0.3,0.5-0.4,1-0.4,1.6c0,0.6,0.1,1.2,0.4,1.7c0.3,0.5,0.7,0.9,1.2,1.2c0.5,0.3,1.1,0.4,1.7,0.4S558.6,720.9,559.1,720.7z"/>
	<path d="M568.5,716.3c0.5,0.3,0.8,0.6,1.1,1.1c0.3,0.5,0.4,1,0.4,1.6c0,0.6-0.1,1.2-0.4,1.6c-0.3,0.5-0.7,0.8-1.2,1.1
		c-0.5,0.3-1.1,0.4-1.7,0.4c-1.1,0-1.9-0.4-2.5-1.1c-0.6-0.7-0.9-1.8-0.9-3.1c0-1.3,0.3-2.3,0.8-3.1c0.5-0.7,1.4-1.2,2.5-1.5
		l2.9-0.6l0.2,1.1l-2.7,0.6c-0.8,0.2-1.5,0.5-1.9,0.9s-0.6,1.1-0.7,1.9c0.3-0.4,0.6-0.7,1.1-0.9c0.4-0.2,0.9-0.3,1.5-0.3
		C567.5,715.9,568,716,568.5,716.3z M567.8,720.9c0.3-0.2,0.6-0.4,0.7-0.8c0.2-0.3,0.3-0.7,0.3-1.1c0-0.6-0.2-1.1-0.6-1.5
		c-0.4-0.4-0.9-0.6-1.5-0.6c-0.6,0-1.1,0.2-1.5,0.6c-0.4,0.4-0.6,0.9-0.6,1.5c0,0.4,0.1,0.8,0.3,1.1c0.2,0.3,0.4,0.6,0.8,0.8
		c0.3,0.2,0.7,0.3,1.1,0.3C567.1,721.2,567.5,721.1,567.8,720.9z"/>
	<path d="M576.7,716c0.5,0.3,0.9,0.7,1.1,1.1c0.3,0.5,0.4,1.1,0.4,1.7c0,0.6-0.1,1.2-0.4,1.7c-0.3,0.5-0.7,0.9-1.1,1.1
		c-0.5,0.3-1,0.4-1.7,0.4c-0.5,0-0.9-0.1-1.3-0.3s-0.7-0.4-1-0.8v3.3h-1.2v-8.7h1.1v1c0.3-0.4,0.6-0.6,1-0.8
		c0.4-0.2,0.8-0.3,1.3-0.3C575.6,715.6,576.2,715.8,576.7,716z M576,720.8c0.3-0.2,0.6-0.5,0.8-0.8c0.2-0.3,0.3-0.7,0.3-1.2
		c0-0.4-0.1-0.8-0.3-1.2c-0.2-0.3-0.4-0.6-0.8-0.8c-0.3-0.2-0.7-0.3-1.1-0.3c-0.4,0-0.8,0.1-1.1,0.3c-0.3,0.2-0.6,0.4-0.8,0.8
		c-0.2,0.3-0.3,0.7-0.3,1.2c0,0.4,0.1,0.8,0.3,1.2c0.2,0.3,0.4,0.6,0.8,0.8s0.7,0.3,1.1,0.3C575.3,721.1,575.7,721,576,720.8z"/>
	<path d="M584.1,716.3c0.5,0.4,0.7,1.1,0.7,1.9v3.8h-1.1v-0.8c-0.2,0.3-0.5,0.5-0.8,0.7c-0.4,0.2-0.8,0.2-1.3,0.2
		c-0.7,0-1.3-0.2-1.7-0.5c-0.4-0.3-0.6-0.8-0.6-1.4s0.2-1,0.6-1.4s1.1-0.5,1.9-0.5h1.8v-0.2c0-0.5-0.1-0.9-0.4-1.1
		c-0.3-0.3-0.7-0.4-1.3-0.4c-0.4,0-0.7,0.1-1.1,0.2s-0.7,0.3-0.9,0.5l-0.5-0.9c0.3-0.3,0.7-0.5,1.2-0.6s0.9-0.2,1.5-0.2
		C583,715.6,583.6,715.8,584.1,716.3z M583,720.9c0.3-0.2,0.6-0.5,0.7-0.8v-0.9h-1.8c-1,0-1.5,0.3-1.5,1c0,0.3,0.1,0.6,0.4,0.8
		s0.6,0.3,1,0.3C582.3,721.2,582.6,721.1,583,720.9z"/>
	<path d="M591.2,719.3c0.2,0.2,0.3,0.6,0.3,0.9c0,0.4-0.1,0.7-0.4,1c-0.3,0.3-0.6,0.5-1.1,0.7c-0.5,0.2-1,0.2-1.5,0.2
		c-0.5,0-0.9-0.1-1.4-0.2c-0.5-0.1-0.9-0.3-1.2-0.5l0.3-0.9c0.3,0.2,0.7,0.3,1,0.5s0.8,0.2,1.2,0.2c0.5,0,1-0.1,1.3-0.3
		c0.3-0.2,0.5-0.4,0.5-0.8c0-0.3-0.1-0.5-0.4-0.7c-0.3-0.2-0.6-0.2-1.1-0.2h-1.2v-0.8h1.1c0.4,0,0.8-0.1,1-0.2s0.4-0.4,0.4-0.6
		c0-0.3-0.1-0.5-0.4-0.7c-0.3-0.2-0.7-0.2-1.2-0.2c-0.6,0-1.3,0.2-2,0.5l-0.3-0.9c0.8-0.4,1.6-0.6,2.4-0.6c0.5,0,1,0.1,1.4,0.2
		c0.4,0.1,0.7,0.3,1,0.6c0.2,0.3,0.3,0.6,0.3,0.9c0,0.3-0.1,0.6-0.3,0.8s-0.5,0.4-0.8,0.6C590.7,718.8,591,719,591.2,719.3z"/>
	<path d="M594.3,721.7c-0.5-0.3-0.9-0.7-1.2-1.2c-0.3-0.5-0.4-1.1-0.4-1.7s0.1-1.2,0.4-1.7s0.7-0.9,1.2-1.2c0.5-0.3,1.1-0.4,1.7-0.4
		s1.2,0.1,1.7,0.4c0.5,0.3,0.9,0.7,1.2,1.2s0.4,1,0.4,1.7s-0.1,1.2-0.4,1.7c-0.3,0.5-0.7,0.9-1.2,1.2c-0.5,0.3-1.1,0.4-1.7,0.4
		S594.8,722,594.3,721.7z M597.1,720.8c0.3-0.2,0.6-0.5,0.8-0.8c0.2-0.3,0.3-0.7,0.3-1.2c0-0.4-0.1-0.8-0.3-1.2
		c-0.2-0.3-0.4-0.6-0.8-0.8c-0.3-0.2-0.7-0.3-1.1-0.3s-0.8,0.1-1.1,0.3c-0.3,0.2-0.6,0.4-0.8,0.8c-0.2,0.3-0.3,0.7-0.3,1.2
		c0,0.4,0.1,0.8,0.3,1.2c0.2,0.3,0.4,0.6,0.8,0.8s0.7,0.3,1.1,0.3S596.8,721,597.1,720.8z"/>
	<path d="M606.6,720.3c0,0.6-0.2,1-0.6,1.3c-0.4,0.3-1,0.5-1.9,0.5H601v-6.4h3c0.8,0,1.3,0.1,1.8,0.4c0.4,0.3,0.6,0.7,0.6,1.2
		c0,0.3-0.1,0.6-0.3,0.9c-0.2,0.2-0.4,0.4-0.8,0.6C606.2,719,606.6,719.5,606.6,720.3z M602.1,718.4h1.7c0.4,0,0.8-0.1,1-0.2
		c0.2-0.2,0.3-0.4,0.3-0.7c0-0.6-0.4-0.9-1.3-0.9h-1.7V718.4z M605.1,720.9c0.2-0.2,0.4-0.4,0.4-0.7c0-0.3-0.1-0.6-0.3-0.7
		c-0.2-0.2-0.6-0.2-1-0.2h-1.9v1.9h1.8C604.5,721.2,604.8,721.1,605.1,720.9z"/>
	<path d="M612.7,716.3c0.5,0.4,0.7,1.1,0.7,1.9v3.8h-1.1v-0.8c-0.2,0.3-0.5,0.5-0.8,0.7c-0.4,0.2-0.8,0.2-1.3,0.2
		c-0.7,0-1.3-0.2-1.7-0.5c-0.4-0.3-0.6-0.8-0.6-1.4s0.2-1,0.6-1.4s1.1-0.5,1.9-0.5h1.8v-0.2c0-0.5-0.1-0.9-0.4-1.1
		c-0.3-0.3-0.7-0.4-1.3-0.4c-0.4,0-0.7,0.1-1.1,0.2c-0.4,0.1-0.7,0.3-0.9,0.5l-0.5-0.9c0.3-0.3,0.7-0.5,1.2-0.6
		c0.5-0.1,0.9-0.2,1.5-0.2C611.5,715.6,612.2,715.8,612.7,716.3z M611.5,720.9c0.3-0.2,0.6-0.5,0.7-0.8v-0.9h-1.8
		c-1,0-1.5,0.3-1.5,1c0,0.3,0.1,0.6,0.4,0.8s0.6,0.3,1,0.3S611.2,721.1,611.5,720.9z"/>
	<path d="M615.4,715.7h1.2v2.7h3.6v-2.7h1.2v6.4h-1.2v-2.7h-3.6v2.7h-1.2V715.7z"/>
	<path d="M623.6,715.7h1.2v4.6l3.9-4.6h1v6.4h-1.2v-4.6l-3.9,4.6h-1.1V715.7z"/>
	<path d="M637.7,719.2h-5.2c0.1,0.6,0.3,1,0.7,1.4c0.4,0.3,0.9,0.5,1.6,0.5c0.8,0,1.4-0.3,1.8-0.8l0.6,0.7c-0.3,0.3-0.6,0.6-1.1,0.8
		s-0.9,0.3-1.4,0.3c-0.7,0-1.3-0.1-1.8-0.4c-0.5-0.3-0.9-0.7-1.2-1.2c-0.3-0.5-0.4-1.1-0.4-1.7c0-0.6,0.1-1.2,0.4-1.7
		c0.3-0.5,0.7-0.9,1.1-1.2c0.5-0.3,1-0.4,1.6-0.4c0.6,0,1.2,0.1,1.6,0.4c0.5,0.3,0.8,0.7,1.1,1.2c0.3,0.5,0.4,1.1,0.4,1.7
		C637.7,719,637.7,719.1,637.7,719.2z M633.2,717.1c-0.4,0.3-0.6,0.8-0.7,1.3h4.1c-0.1-0.5-0.3-1-0.7-1.3c-0.4-0.3-0.8-0.5-1.4-0.5
		C634,716.6,633.5,716.8,633.2,717.1z"/>
</g>
<g>
	<path d="M836.7,713.6h1.2v6.5l5-6.5h1.1v8.4h-1.2v-6.5l-5,6.5h-1.1V713.6z"/>
	<path d="M846.4,715.7h1.2v2.7h3.6v-2.7h1.2v6.4h-1.2v-2.7h-3.6v2.7h-1.2V715.7z"/>
	<path d="M860.1,720.3c0,0.6-0.2,1-0.6,1.3c-0.4,0.3-1,0.5-1.9,0.5h-3.1v-6.4h3c0.8,0,1.3,0.1,1.8,0.4c0.4,0.3,0.6,0.7,0.6,1.2
		c0,0.3-0.1,0.6-0.3,0.9c-0.2,0.2-0.4,0.4-0.8,0.6C859.7,719,860.1,719.5,860.1,720.3z M855.7,718.4h1.7c0.4,0,0.8-0.1,1-0.2
		c0.2-0.2,0.3-0.4,0.3-0.7c0-0.6-0.4-0.9-1.3-0.9h-1.7V718.4z M858.6,720.9c0.2-0.2,0.4-0.4,0.4-0.7c0-0.3-0.1-0.6-0.3-0.7
		c-0.2-0.2-0.6-0.2-1-0.2h-1.9v1.9h1.8C858,721.2,858.4,721.1,858.6,720.9z"/>
	<path d="M867.6,719.2h-5.2c0.1,0.6,0.3,1,0.7,1.4c0.4,0.3,0.9,0.5,1.6,0.5c0.8,0,1.4-0.3,1.8-0.8l0.6,0.7c-0.3,0.3-0.6,0.6-1.1,0.8
		s-0.9,0.3-1.4,0.3c-0.7,0-1.3-0.1-1.8-0.4c-0.5-0.3-0.9-0.7-1.2-1.2c-0.3-0.5-0.4-1.1-0.4-1.7c0-0.6,0.1-1.2,0.4-1.7
		c0.3-0.5,0.7-0.9,1.1-1.2c0.5-0.3,1-0.4,1.6-0.4s1.2,0.1,1.6,0.4c0.5,0.3,0.8,0.7,1.1,1.2c0.3,0.5,0.4,1.1,0.4,1.7
		C867.7,719,867.7,719.1,867.6,719.2z M863.1,717.1c-0.4,0.3-0.6,0.8-0.7,1.3h4.1c-0.1-0.5-0.3-1-0.7-1.3c-0.4-0.3-0.8-0.5-1.4-0.5
		C864,716.6,863.5,716.8,863.1,717.1z"/>
	<path d="M870.5,721.7c-0.5-0.3-0.9-0.7-1.2-1.2c-0.3-0.5-0.4-1.1-0.4-1.7s0.1-1.2,0.4-1.7c0.3-0.5,0.7-0.9,1.2-1.2
		c0.5-0.3,1.1-0.4,1.7-0.4c0.6,0,1.1,0.1,1.5,0.3c0.5,0.2,0.8,0.6,1,1l-0.9,0.6c-0.2-0.3-0.4-0.5-0.7-0.7c-0.3-0.2-0.6-0.2-1-0.2
		c-0.4,0-0.8,0.1-1.1,0.3c-0.3,0.2-0.6,0.4-0.8,0.8c-0.2,0.3-0.3,0.7-0.3,1.2c0,0.4,0.1,0.8,0.3,1.2c0.2,0.3,0.4,0.6,0.8,0.8
		s0.7,0.3,1.1,0.3c0.4,0,0.7-0.1,1-0.2c0.3-0.2,0.5-0.4,0.7-0.7l0.9,0.6c-0.2,0.4-0.6,0.8-1,1c-0.5,0.2-1,0.4-1.5,0.4
		C871.6,722.1,871,722,870.5,721.7z"/>
	<path d="M881,716.7h-2.3v5.4h-1.2v-5.4h-2.3v-1h5.8V716.7z"/>
	<path d="M882.1,715.7h1.2v4.6l3.9-4.6h1v6.4h-1.2v-4.6l-3.9,4.6h-1.1V715.7z"/>
	<path d="M897.3,721v2.5h-1.1V722h-5.7v-6.4h1.2v5.4h3.5v-5.4h1.2v5.4H897.3z"/>
	<path d="M898.8,715.7h1.2v4.6l3.9-4.6h1v6.4h-1.2v-4.6l-3.9,4.6h-1.1V715.7z"/>
	<path d="M907.1,715.7h1.2v4.6l3.9-4.6h1v6.4H912v-4.6l-3.9,4.6h-1.1V715.7z"/>
</g>
<g class="st2">
	<path class="st3" d="M245.2,38.3h-8.8V18.8c0-1.5-0.7-3-1.8-4c-1.2-1-2.7-1.5-4.2-1.2L55.1,38.3c-0.1,0-0.1,0-0.2,0
		c-0.2,0-0.4,0.1-0.6,0.1c-0.2,0-0.3,0.1-0.5,0.1c-0.2,0.1-0.3,0.1-0.5,0.2C53.3,39,53.1,39,53,39.1c-0.1,0.1-0.3,0.2-0.4,0.3
		c-0.1,0.1-0.3,0.2-0.4,0.3c-0.1,0.1-0.2,0.2-0.3,0.4c-0.1,0.1-0.2,0.3-0.3,0.4c-0.1,0.1-0.2,0.3-0.3,0.4c-0.1,0.1-0.2,0.3-0.2,0.4
		c-0.1,0.2-0.1,0.3-0.2,0.5c-0.1,0.2-0.1,0.3-0.2,0.5c0,0.2-0.1,0.3-0.1,0.5c0,0.2-0.1,0.4-0.1,0.6c0,0.1,0,0.1,0,0.2v233.6
		c0,2.9,2.4,5.3,5.3,5.3h25.8c2.9,0,5.3-2.4,5.3-5.3c0-2.9-2.4-5.3-5.3-5.3H61.1v-223h178.7v223H131c-2.9,0-5.3,2.4-5.3,5.3
		c0,2.9,2.4,5.3,5.3,5.3h114.1c2.9,0,5.3-2.4,5.3-5.3V43.6C250.5,40.7,248.1,38.3,245.2,38.3z M225.7,38.3h-94.4l94.4-13.4V38.3z"/>
	<path class="st3" d="M151.4,86.1c-29.3,0-53.1,23.8-53.1,53.1s23.8,53.1,53.1,53.1s53.1-23.8,53.1-53.1S180.7,86.1,151.4,86.1z
		 M193.5,133.8h-19.2c-0.5-12.7-2.9-25.1-7-34.1C181.3,105.5,191.6,118.4,193.5,133.8z M151.4,181.6c-4.1,0-11.3-14-12.3-37.2h24.5
		C162.7,167.6,155.4,181.6,151.4,181.6z M139.1,133.8c1-23.2,8.2-37.2,12.3-37.2s11.3,14,12.3,37.2H139.1z M135.5,99.8
		c-4.1,9-6.5,21.3-7,34.1h-19.2C111.2,118.4,121.5,105.5,135.5,99.8z M109.3,144.5h19.2c0.5,12.7,2.9,25.1,7,34.1
		C121.5,172.8,111.2,159.9,109.3,144.5z M167.3,178.5c4.1-9,6.5-21.3,7-34.1h19.2C191.6,159.9,181.3,172.8,167.3,178.5z"/>
	<path class="st3" d="M170.9,218.8c0-2.9-2.4-5.3-5.3-5.3H91.2c-2.9,0-5.3,2.4-5.3,5.3s2.4,5.3,5.3,5.3h74.3
		C168.5,224.1,170.9,221.7,170.9,218.8z"/>
	<path class="st3" d="M176.2,218.8c0,2.9,2.4,5.3,5.3,5.3h31.9c2.9,0,5.3-2.4,5.3-5.3s-2.4-5.3-5.3-5.3h-31.9
		C178.5,213.5,176.2,215.9,176.2,218.8z"/>
	<path class="st3" d="M70,59.5v72.6c0,2.9,2.4,5.3,5.3,5.3c2.9,0,5.3-2.4,5.3-5.3V59.5c0-2.9-2.4-5.3-5.3-5.3
		C72.4,54.2,70,56.6,70,59.5z"/>
</g>
<g class="st2">
	<path class="st3" d="M251.5,33.3H242V12.5c0-1.6-0.7-3.2-1.9-4.3c-1.2-1.1-2.9-1.6-4.5-1.3L48.9,33.3c-0.1,0-0.1,0-0.2,0
		c-0.2,0-0.4,0.1-0.6,0.1c-0.2,0-0.3,0.1-0.5,0.2c-0.2,0.1-0.3,0.2-0.5,0.2c-0.2,0.1-0.3,0.2-0.5,0.3c-0.2,0.1-0.3,0.2-0.4,0.3
		c-0.1,0.1-0.3,0.2-0.4,0.3c-0.1,0.1-0.2,0.3-0.4,0.4c-0.1,0.1-0.2,0.3-0.3,0.4c-0.1,0.1-0.2,0.3-0.3,0.5c-0.1,0.2-0.2,0.3-0.3,0.5
		c-0.1,0.2-0.1,0.3-0.2,0.5c-0.1,0.2-0.1,0.4-0.2,0.5c0,0.2-0.1,0.3-0.1,0.5c0,0.2-0.1,0.4-0.1,0.6c0,0.1,0,0.1,0,0.2v248.9
		c0,3.1,2.5,5.7,5.7,5.7h27.5c3.1,0,5.7-2.5,5.7-5.7c0-3.1-2.5-5.7-5.7-5.7H55.3V44.6h190.5v237.6h-116c-3.1,0-5.7,2.5-5.7,5.7
		c0,3.1,2.5,5.7,5.7,5.7h121.6c3.1,0,5.7-2.5,5.7-5.7V38.9C257.1,35.8,254.6,33.3,251.5,33.3z M230.7,33.3H130.1L230.7,19V33.3z"/>
	<path class="st3" d="M151.5,84.2c-31.2,0-56.6,25.4-56.6,56.6s25.4,56.6,56.6,56.6s56.6-25.4,56.6-56.6S182.7,84.2,151.5,84.2z
		 M196.4,135.1h-20.5c-0.5-13.6-3.1-26.7-7.4-36.3C183.4,104.8,194.3,118.6,196.4,135.1z M151.5,186c-4.3,0-12-14.9-13.1-39.6h26.1
		C163.5,171.1,155.8,186,151.5,186z M138.4,135.1c1-24.7,8.7-39.6,13.1-39.6s12,14.9,13.1,39.6H138.4z M134.5,98.8
		c-4.4,9.6-6.9,22.7-7.4,36.3h-20.5C108.7,118.6,119.6,104.8,134.5,98.8z M106.6,146.4h20.5c0.5,13.6,3.1,26.7,7.4,36.3
		C119.6,176.6,108.7,162.9,106.6,146.4z M168.5,182.7c4.4-9.6,6.9-22.7,7.4-36.3h20.5C194.3,162.9,183.4,176.6,168.5,182.7z"/>
	<path class="st3" d="M172.2,225.6c0-3.1-2.5-5.7-5.7-5.7H87.4c-3.1,0-5.7,2.5-5.7,5.7s2.5,5.7,5.7,5.7h79.2
		C169.7,231.3,172.2,228.7,172.2,225.6z"/>
	<path class="st3" d="M177.9,225.6c0,3.1,2.5,5.7,5.7,5.7h33.9c3.1,0,5.7-2.5,5.7-5.7s-2.5-5.7-5.7-5.7h-33.9
		C180.4,220,177.9,222.5,177.9,225.6z"/>
	<path class="st3" d="M64.8,55.9v77.3c0,3.1,2.5,5.7,5.7,5.7c3.1,0,5.7-2.5,5.7-5.7V55.9c0-3.1-2.5-5.7-5.7-5.7
		C67.3,50.2,64.8,52.8,64.8,55.9z"/>
</g>
</svg>
