<svg width="474" height="337" viewBox="0 0 474 337" fill="none" xmlns="http://www.w3.org/2000/svg">
<path d="M469.003 111.779L219.18 0.832082C216.959 -1.6883e-05 214.461 -1.6883e-05 212.518 0.832082L-37.3058 111.779C-38.6937 112.333 -39.804 113.165 -40.3592 114.275C-42.3023 115.662 -43.4126 118.158 -43.4126 120.654V224.112C-62.5657 227.995 -77 244.914 -77 264.885C-77 287.906 -58.402 306.49 -35.3627 306.49C-12.3234 306.49 6.27456 287.906 6.27456 264.885C6.27456 244.914 -8.1597 227.995 -27.0353 224.112V131.472L31.2569 157.267V262.111C31.2569 281.804 47.0791 299.556 77.0579 313.424C78.1683 313.979 79.2786 314.256 80.6665 314.256C83.7199 314.256 86.7733 312.592 88.1612 309.541C90.1043 305.38 88.1612 300.388 83.9975 298.446C61.2358 287.906 47.9118 274.87 47.9118 262.388V164.756L212.518 237.703C213.628 238.258 214.739 238.535 215.849 238.535C216.959 238.535 218.07 238.258 219.18 237.703L322.718 191.937V298.169C322.718 299.001 322.995 299.833 322.995 300.388C322.163 300.665 321.608 300.942 320.775 301.22C290.241 313.424 249.436 320.081 206.133 320.081C181.984 320.081 158.945 318.139 137.571 313.979C133.129 313.146 128.688 316.198 127.855 320.635C127.023 325.073 130.076 329.511 134.517 330.343C157.001 334.504 181.151 336.723 206.133 336.723C251.657 336.723 294.682 329.511 326.882 316.752C361.579 302.884 381.01 283.468 381.01 261.834V165.865L469.003 126.756C472.057 125.37 474 122.318 474 119.267C474 116.216 472.057 112.888 469.003 111.779ZM-10.3804 264.885C-10.3804 278.753 -21.4836 289.848 -35.3627 289.848C-49.2418 289.848 -60.3451 278.753 -60.3451 264.885C-60.3451 251.016 -49.2418 239.922 -35.3627 239.922C-21.4836 239.922 -10.3804 251.016 -10.3804 264.885ZM364.355 262.111C364.355 272.651 355.473 283.191 339.373 292.621V187.222C339.373 186.39 339.095 185.558 338.818 184.726L364.355 173.354V262.111ZM369.352 152.829L215.849 221.061L42.9154 144.23L-13.4338 119.267L215.849 17.4741L445.131 119.267L369.352 152.829Z" fill="white"/>
<path d="M141.735 68.5094L36.2534 112.888C32.0897 114.552 30.1466 119.545 31.8121 123.705C33.2 126.756 36.2534 128.698 39.5844 128.698C40.6947 128.698 41.8051 128.421 42.9154 128.143L148.396 83.7645C152.56 82.1003 154.503 77.1077 152.838 72.9473C150.895 68.7868 146.176 66.8452 141.735 68.5094Z" fill="white"/>
<path d="M165.051 68.5094C166.439 71.5604 169.492 73.502 172.823 73.502C173.934 73.502 175.044 73.2246 176.154 72.9473L224.731 52.1448C228.895 50.2032 230.838 45.488 229.172 41.3275C227.229 37.167 222.51 35.2254 218.347 36.8896L169.77 57.6921C165.328 59.3563 163.385 64.3489 165.051 68.5094Z" fill="white"/>
</svg>
