<svg width="104" height="97" viewBox="0 0 104 97" fill="none" xmlns="http://www.w3.org/2000/svg">
<path d="M101.645 70.0121C102.979 70.0121 104 68.9952 104 67.6653V21.1992C104 19.8694 102.979 18.8524 101.645 18.8524H75.9001C74.5658 18.8524 73.5454 19.8694 73.5454 21.1992V93.0887C73.5454 94.4185 74.5658 95.4355 75.9001 95.4355H101.645C102.979 95.4355 104 94.4185 104 93.0887V82.7629C104 81.4331 102.979 80.4161 101.645 80.4161C100.311 80.4161 99.2903 81.4331 99.2903 82.7629V90.7419H78.2548V23.546H99.2903V67.6653C99.2903 68.9952 100.311 70.0121 101.645 70.0121Z" fill="white"/>
<path d="M63.0279 0H37.2829C35.9486 0 34.9282 1.01694 34.9282 2.34677V93.0887C34.9282 94.4185 35.9486 95.4355 37.2829 95.4355H63.0279C64.3622 95.4355 65.3826 94.4185 65.3826 93.0887V2.34677C65.3826 1.01694 64.3622 0 63.0279 0ZM60.6731 90.7419H39.6377V4.69355H60.6731V90.7419Z" fill="white"/>
<path d="M13.7361 82.1371C12.4017 82.1371 11.3813 83.154 11.3813 84.4839V94.6532C11.3813 95.983 12.4017 97 13.7361 97C15.0704 97 16.0908 95.983 16.0908 94.6532V84.4839C16.0908 83.154 15.0704 82.1371 13.7361 82.1371Z" fill="white"/>
<path d="M15.7766 5.78869C14.8347 4.84998 13.3434 4.84998 12.48 5.78869L0.706415 17.5226C-0.235472 18.4613 -0.235472 19.9476 0.706415 20.808C1.6483 21.7468 3.13962 21.7468 4.00302 20.808L11.3811 13.4548V74.3145C11.3811 75.6443 12.4015 76.6613 13.7358 76.6613C15.0702 76.6613 16.0906 75.6443 16.0906 74.3145V12.6726L24.2536 20.808C24.7245 21.2774 25.3525 21.5121 25.9019 21.5121C26.4513 21.5121 27.0792 21.2774 27.5502 20.808C28.4921 19.8693 28.4921 18.383 27.5502 17.5226L15.7766 5.78869Z" fill="white"/>
<path d="M54.7864 32.0726C56.1207 32.0726 57.1411 31.0556 57.1411 29.7258V10.1693C57.1411 8.83951 56.1207 7.82257 54.7864 7.82257C53.452 7.82257 52.4316 8.83951 52.4316 10.1693V29.7258C52.4316 31.0556 53.452 32.0726 54.7864 32.0726Z" fill="white"/>
<path d="M90.1074 28.9436V48.5C90.1074 49.8299 91.1278 50.8468 92.4621 50.8468C93.7965 50.8468 94.8169 49.8299 94.8169 48.5V28.9436C94.8169 27.6137 93.7965 26.5968 92.4621 26.5968C91.1278 26.5968 90.1074 27.6137 90.1074 28.9436Z" fill="white"/>
<path d="M54.7864 50.0645C56.1207 50.0645 57.1411 49.0476 57.1411 47.7178V38.3307C57.1411 37.0008 56.1207 35.9839 54.7864 35.9839C53.452 35.9839 52.4316 37.0008 52.4316 38.3307V47.7178C52.4316 49.0476 53.452 50.0645 54.7864 50.0645Z" fill="white"/>
</svg>
