<svg width="109" height="95" viewBox="0 0 109 95" fill="none" xmlns="http://www.w3.org/2000/svg">
<path fill-rule="evenodd" clip-rule="evenodd" d="M93.6199 56.7296C86.7337 56.7296 83.1266 54.4145 83.1266 53.6144C83.1266 52.8143 86.7337 50.4992 93.6199 50.4992C100.504 50.4992 104.113 52.8143 104.113 53.6144C104.113 54.4145 100.504 56.7296 93.6199 56.7296ZM104.113 62.1402C104.113 62.942 100.504 65.2554 93.6199 65.2554C86.7337 65.2554 83.1266 62.942 83.1266 62.1402V58.8102C85.7204 60.1039 89.4422 60.8286 93.6199 60.8286C97.5122 60.8286 101.38 60.0531 104.113 58.7611V62.1402ZM104.113 70.666C104.113 71.4678 100.504 73.7812 93.6199 73.7812C92.6673 73.7812 91.8262 73.7812 91.0261 73.6845C89.3406 70.7152 86.5631 68.5182 83.1266 67.4295V67.3361C85.722 68.628 89.4422 69.3544 93.6199 69.3544C97.5122 69.3544 101.38 68.5772 104.113 67.2869V70.666ZM79.1916 70.83C84.435 70.83 88.8651 75.2601 88.8651 80.5035C88.8651 85.7485 84.435 90.177 79.1916 90.177C73.9466 90.177 69.5181 85.7485 69.5181 80.5035C69.5181 75.2601 73.9466 70.83 79.1916 70.83ZM54.1061 83.763C56.5851 85.0517 60.0085 85.7501 63.9435 85.7501C64.7223 85.7501 65.5241 85.7501 66.3373 85.6665C66.8767 87.0946 67.726 88.462 68.8016 89.6474C67.4489 89.9917 65.7733 90.177 63.9435 90.177C57.5524 90.177 54.1061 87.9652 54.1061 87.0618V83.763ZM50.0071 61.8123V70.666H4.09894V35.6611C10.8327 41.939 25.2282 46.1576 42.629 46.861V50.8271C42.629 51.1108 42.7749 51.3731 43.016 51.524L47.7707 54.4752C48.0347 54.6408 48.3708 54.6408 48.6348 54.4752L53.3896 51.524C53.6306 51.3731 53.7781 51.1108 53.7781 50.8271V46.861C70.8101 46.1642 85.5007 41.8423 92.3082 35.6283V46.5954C85.6532 46.9233 79.1916 49.2236 79.1916 53.7784V67.059C78.7915 67.059 78.3374 67.059 77.8799 67.095V61.8123C77.8799 57.633 72.0184 54.5982 63.9435 54.5982C55.8686 54.5982 50.0071 57.633 50.0071 61.8123ZM53.6142 42.7588V39.1861C53.6142 38.7336 53.2469 38.3664 52.7944 38.3664H43.4488C42.9963 38.3664 42.629 38.7336 42.629 39.1861V42.7588C21.9015 41.8242 4.69903 35.1823 4.09894 27.8731V13.2808H92.1443L92.1475 27.9534C91.3917 35.3741 74.5401 41.8193 53.6142 42.7588ZM49.6792 42.4653V49.0679L48.2036 50.0172L46.728 49.0679V42.4653H49.6792ZM54.27 75.2372C57.1393 76.7292 61.1792 77.4686 66.0537 77.1866C65.7438 78.3114 65.5831 79.4378 65.5831 80.5035C65.5831 80.8609 65.5831 81.1921 65.611 81.5381C65.4929 81.5495 65.3749 81.561 65.2568 81.5741C64.8732 81.6102 64.4895 81.6512 64.1075 81.6512C57.718 81.6512 54.27 79.4394 54.27 78.536V75.2372ZM73.781 67.036V67.9788C71.3938 68.9937 69.3623 70.6792 67.867 72.8909C66.7259 73.1254 65.4273 73.1254 63.9435 73.1254C57.5524 73.1254 54.1061 70.9153 54.1061 70.0102V67.0393C56.5867 68.3296 60.0102 69.0265 63.9435 69.0265C67.8162 69.0265 71.3003 68.3116 73.781 67.036ZM54.27 61.6484C54.27 60.7449 57.718 58.5332 64.1075 58.5332C70.4969 58.5332 73.9449 60.7449 73.9449 61.6484C73.9449 62.5518 70.4969 64.7636 64.1075 64.7636C57.618 64.7636 54.27 62.5796 54.27 61.6484ZM104.113 79.1918C104.113 79.992 100.504 82.307 93.6199 82.307H92.641C92.7329 81.7529 92.8001 81.1659 92.8001 80.5035C92.8001 79.6148 92.7083 78.6934 92.546 77.8802H93.6199C97.5122 77.8802 101.38 77.103 104.113 75.8127V79.1918ZM91.5065 86.424C91.7442 86.4404 91.9885 86.4617 92.2344 86.4847C92.7099 86.5273 93.187 86.5699 93.6199 86.5699C97.5139 86.5699 101.382 85.7928 104.115 84.5008L104.116 87.1897C103.921 87.8832 100.267 90.177 93.6199 90.177C92.1164 90.177 90.6227 90.0098 89.252 89.7966C90.1309 88.808 90.8851 87.6783 91.5065 86.424ZM60.9693 3.93523L61.9695 9.18188H34.4147L35.2886 3.93523H60.9693ZM96.2432 46.6184V10.1656C96.2432 9.7131 95.8759 9.34584 95.4234 9.34584H66.1078L64.5862 0.67739C64.5174 0.285531 64.1763 0.000244141 63.7796 0.000244141H32.6276C32.2292 0.000244141 31.8881 0.285531 31.8193 0.67739L30.2994 9.34584H0.819789C0.367265 9.34584 0 9.7131 0 10.1656V73.7812C0 74.2337 0.367265 74.601 0.819789 74.601H50.1711V86.8979C50.1711 91.0788 56.0326 94.112 64.1075 94.112C67.203 94.112 70.4608 93.5349 72.9186 92.5577C76.9323 94.6088 81.7001 94.535 85.0219 92.7085C87.9256 93.6398 90.8178 94.112 93.6199 94.112C100.872 94.112 108.212 91.6346 108.212 86.8979V53.6144C108.212 49.3991 102.323 47.1004 96.2432 46.6184Z" fill="#4C61F4"/>
</svg>
