<svg width="97" height="82" viewBox="0 0 97 82" fill="none" xmlns="http://www.w3.org/2000/svg">
<path fill-rule="evenodd" clip-rule="evenodd" d="M43.9668 75.032H52.5419V68.6006H43.9668V75.032ZM32.1761 37.8504L47.0817 43.7125C47.8267 44.0041 48.682 44.0041 49.427 43.7125L64.3326 37.8504V44.4832C63.3283 45.27 62.0731 45.822 60.849 46.2915C57.7952 47.3773 53.2493 48.2348 48.2544 48.2348C43.2594 48.2348 38.7135 47.3773 35.6597 46.2915C34.6457 45.926 33.1504 45.2368 32.1761 44.4832V37.8504ZM48.2544 20.6006L69.4573 28.9409L48.2544 37.248L27.0514 28.9409L48.2544 20.6006ZM47.0817 14.1349L17.0689 25.9257C15.8695 26.392 15.0259 27.6203 15.0259 28.9077C15.0259 30.1939 15.8695 31.4566 17.0689 31.9218L25.7448 35.339V45.0192C25.7448 47.3194 27.1511 48.7633 28.5252 49.8094C29.8994 50.8556 31.5555 51.6584 33.5159 52.3552C37.4369 53.7486 42.5605 54.6661 48.2544 54.6661C53.9482 54.6661 59.0718 53.7486 62.9928 52.3552C64.9533 51.6584 66.6093 50.8556 67.9835 49.8094C69.3576 48.7633 70.7639 47.3194 70.7639 45.0192V35.339L72.9077 34.5008V37.9512C72.2507 38.7068 71.8358 39.6748 71.8358 40.7316C71.8358 43.0619 73.7931 45.0192 76.1234 45.0192C78.4537 45.0192 80.4109 43.0619 80.4109 40.7316C80.4109 39.6748 79.9961 38.7068 79.339 37.9512V31.955L79.4398 31.9218C80.6392 31.4566 81.4828 30.1939 81.4828 28.9077C81.4828 27.6214 80.6392 26.393 79.4398 25.9268L49.427 14.136C48.5974 13.8273 47.6412 13.9345 47.0817 14.1349V14.1349ZM7.52273 6.43131H88.986C89.6345 6.43131 90.0579 6.85363 90.0579 7.5032V61.0975C90.0579 61.7459 89.6345 62.1693 88.986 62.1693H7.52273C6.87316 62.1693 6.45084 61.7459 6.45084 61.0975V7.5032C6.45084 6.85363 6.87316 6.43131 7.52273 6.43131V6.43131ZM7.52273 0C3.42169 0 0.0195312 3.40216 0.0195312 7.5032V61.0975C0.0195312 65.1985 3.42169 68.6006 7.52273 68.6006H37.5355V75.032H35.3917C33.6156 75.032 32.1761 76.4715 32.1761 78.2476C32.1761 80.0237 33.6156 81.4633 35.3917 81.4633H61.117C62.8931 81.4633 64.3326 80.0237 64.3326 78.2476C64.3326 76.4715 62.8931 75.032 61.117 75.032H58.9732V68.6006H88.986C93.087 68.6006 96.4892 65.1985 96.4892 61.0975V7.5032C96.4892 3.40216 93.087 0 88.986 0H7.52273Z" fill="white"/>
</svg>
