<svg width="109" height="95" viewBox="0 0 109 95" fill="none" xmlns="http://www.w3.org/2000/svg">
<path fill-rule="evenodd" clip-rule="evenodd" d="M93.6199 56.7289C86.7336 56.7289 83.1266 54.4138 83.1266 53.6137C83.1266 52.8136 86.7336 50.4985 93.6199 50.4985C100.504 50.4985 104.113 52.8136 104.113 53.6137C104.113 54.4138 100.504 56.7289 93.6199 56.7289V56.7289ZM104.113 62.1395C104.113 62.9413 100.504 65.2547 93.6199 65.2547C86.7336 65.2547 83.1266 62.9413 83.1266 62.1395V58.8095C85.7204 60.1031 89.4422 60.8278 93.6199 60.8278C97.5122 60.8278 101.38 60.0523 104.113 58.7603V62.1395ZM104.113 70.6653C104.113 71.4671 100.504 73.7805 93.6199 73.7805C92.6673 73.7805 91.8262 73.7805 91.0261 73.6838C89.3406 70.7145 86.5631 68.5175 83.1266 67.4288V67.3353C85.722 68.6273 89.4422 69.3536 93.6199 69.3536C97.5122 69.3536 101.38 68.5765 104.113 67.2861V70.6653ZM79.1916 70.8293C84.435 70.8293 88.8651 75.2594 88.8651 80.5028C88.8651 85.7478 84.435 90.1763 79.1916 90.1763C73.9466 90.1763 69.5181 85.7478 69.5181 80.5028C69.5181 75.2594 73.9466 70.8293 79.1916 70.8293V70.8293ZM54.1061 83.7622C56.5851 85.051 60.0085 85.7494 63.9435 85.7494C64.7223 85.7494 65.5241 85.7494 66.3373 85.6658C66.8767 87.0939 67.726 88.4613 68.8016 89.6467C67.4489 89.991 65.7733 90.1763 63.9435 90.1763C57.5524 90.1763 54.1061 87.9645 54.1061 87.0611V83.7622ZM50.0071 61.8116V70.6653H4.09894V35.6603C10.8327 41.9383 25.2282 46.1569 42.629 46.8603V50.8264C42.629 51.1101 42.7749 51.3724 43.016 51.5232L47.7707 54.4745C48.0347 54.6401 48.3708 54.6401 48.6348 54.4745L53.3896 51.5232C53.6306 51.3724 53.7781 51.1101 53.7781 50.8264V46.8603C70.8101 46.1635 85.5007 41.8415 92.3082 35.6275V46.5947C85.6532 46.9226 79.1916 49.2229 79.1916 53.7777V67.0582C78.7915 67.0582 78.3374 67.0582 77.8799 67.0943V61.8116C77.8799 57.6323 72.0184 54.5974 63.9435 54.5974C55.8686 54.5974 50.0071 57.6323 50.0071 61.8116V61.8116ZM53.6142 42.7581V39.1854C53.6142 38.7329 53.2469 38.3656 52.7944 38.3656H43.4488C42.9963 38.3656 42.629 38.7329 42.629 39.1854V42.7581C21.9015 41.8235 4.69903 35.1816 4.09894 27.8723V13.2801H92.1443L92.1475 27.9527C91.3917 35.3734 74.5401 41.8186 53.6142 42.7581V42.7581ZM49.6792 42.4646V49.0671L48.2036 50.0165L46.728 49.0671V42.4646H49.6792ZM54.27 75.2364C57.1393 76.7285 61.1792 77.4679 66.0537 77.1859C65.7438 78.3107 65.5831 79.437 65.5831 80.5028C65.5831 80.8602 65.5831 81.1914 65.611 81.5373C65.4929 81.5488 65.3749 81.5603 65.2568 81.5734C64.8732 81.6095 64.4895 81.6505 64.1075 81.6505C57.718 81.6505 54.27 79.4387 54.27 78.5353V75.2364ZM73.781 67.0353V67.978C71.3938 68.9929 69.3623 70.6784 67.867 72.8902C66.7259 73.1247 65.4273 73.1247 63.9435 73.1247C57.5524 73.1247 54.1061 70.9145 54.1061 70.0095V67.0386C56.5867 68.3289 60.0102 69.0257 63.9435 69.0257C67.8162 69.0257 71.3003 68.3109 73.781 67.0353V67.0353ZM54.27 61.6476C54.27 60.7442 57.718 58.5324 64.1075 58.5324C70.4969 58.5324 73.9449 60.7442 73.9449 61.6476C73.9449 62.551 70.4969 64.7628 64.1075 64.7628C57.618 64.7628 54.27 62.5789 54.27 61.6476V61.6476ZM104.113 79.1911C104.113 79.9912 100.504 82.3063 93.6199 82.3063H92.641C92.7329 81.7521 92.8001 81.1652 92.8001 80.5028C92.8001 79.6141 92.7083 78.6927 92.546 77.8794H93.6199C97.5122 77.8794 101.38 77.1023 104.113 75.8119V79.1911ZM91.5065 86.4233C91.7442 86.4397 91.9885 86.461 92.2344 86.4839C92.7099 86.5266 93.187 86.5692 93.6199 86.5692C97.5139 86.5692 101.382 85.792 104.115 84.5001L104.116 87.189C103.921 87.8825 100.267 90.1763 93.6199 90.1763C92.1164 90.1763 90.6227 90.009 89.252 89.7959C90.1309 88.8072 90.8851 87.6776 91.5065 86.4233V86.4233ZM60.9693 3.9345L61.9695 9.18115H34.4147L35.2886 3.9345H60.9693ZM96.2432 46.6176V10.1649C96.2432 9.71237 95.8759 9.3451 95.4234 9.3451H66.1078L64.5862 0.676657C64.5174 0.284798 64.1763 -0.000488281 63.7796 -0.000488281H32.6276C32.2292 -0.000488281 31.8881 0.284798 31.8193 0.676657L30.2994 9.3451H0.819789C0.367265 9.3451 0 9.71237 0 10.1649V73.7805C0 74.233 0.367265 74.6003 0.819789 74.6003H50.1711V86.8971C50.1711 91.078 56.0326 94.1113 64.1075 94.1113C67.203 94.1113 70.4608 93.5341 72.9186 92.5569C76.9323 94.608 81.7001 94.5343 85.0219 92.7078C87.9256 93.6391 90.8178 94.1113 93.6199 94.1113C100.872 94.1113 108.212 91.6339 108.212 86.8971V53.6137C108.212 49.3983 102.323 47.0997 96.2432 46.6176V46.6176Z" fill="#F7F7F7"/>
</svg>
