<svg width="110" height="98" viewBox="0 0 110 98" fill="none" xmlns="http://www.w3.org/2000/svg">
<path d="M107.74 28.0216C109.021 28.0216 110 27.0371 110 25.7496V18.3277C110 17.0402 109.021 16.0556 107.74 16.0556H82.952V5.30139C82.952 2.34776 80.6164 0 77.6781 0H31.6438C28.7055 0 26.3699 2.34776 26.3699 5.30139V16.0556H2.26027C0.979452 16.0556 0 17.0402 0 18.3277V91.9413C0 95.2736 2.71233 98 6.0274 98H103.973C107.288 98 110 95.2736 110 91.9413V40.6692C110 39.3818 109.021 38.3972 107.74 38.3972C106.459 38.3972 105.479 39.3818 105.479 40.6692V48.8485H82.8767V40.6692C82.8767 39.3818 81.8973 38.3972 80.6164 38.3972C79.3356 38.3972 78.3562 39.3818 78.3562 40.6692V48.8485H30.8904V40.6692C30.8904 39.3818 29.911 38.3972 28.6301 38.3972C27.3493 38.3972 26.3699 39.3818 26.3699 40.6692V48.8485H4.52055V20.5997H28.6301H80.6918H105.479V25.7496C105.479 27.0371 106.459 28.0216 107.74 28.0216ZM26.3699 53.3926V57.3308C26.3699 58.6182 27.3493 59.6028 28.6301 59.6028C29.911 59.6028 30.8904 58.6182 30.8904 57.3308V53.3926H78.3562V57.3308C78.3562 58.6182 79.3356 59.6028 80.6164 59.6028C81.8973 59.6028 82.8767 58.6182 82.8767 57.3308V53.3926H105.479V91.9413C105.479 92.7744 104.801 93.456 103.973 93.456H6.0274C5.19863 93.456 4.52055 92.7744 4.52055 91.9413V53.3926H26.3699ZM30.8904 16.0556V5.30139C30.8904 4.84699 31.1918 4.54405 31.6438 4.54405H77.6781C78.1301 4.54405 78.4315 4.84699 78.4315 5.30139V16.0556H30.8904Z" fill="white"/>
<path d="M28.6299 70.9629C29.9107 70.9629 30.8902 69.9784 30.8902 68.6909V64.0711C30.8902 62.7836 29.9107 61.7991 28.6299 61.7991C27.3491 61.7991 26.3696 62.7836 26.3696 64.0711V68.6909C26.3696 69.9784 27.3491 70.9629 28.6299 70.9629Z" fill="white"/>
<path d="M80.6162 70.9629C81.8971 70.9629 82.8765 69.9784 82.8765 68.6909V64.0711C82.8765 62.7836 81.8971 61.7991 80.6162 61.7991C79.3354 61.7991 78.356 62.7836 78.356 64.0711V68.6909C78.356 69.9784 79.3354 70.9629 80.6162 70.9629Z" fill="white"/>
<path d="M9.04104 23.2504C7.76021 23.2504 6.78076 24.2349 6.78076 25.5224C6.78076 26.8099 7.76021 27.7944 9.04104 27.7944H22.6027C23.8835 27.7944 24.863 26.8099 24.863 25.5224C24.863 24.2349 23.8835 23.2504 22.6027 23.2504H9.04104Z" fill="white"/>
<path d="M53.4932 89.8965H97.9452C99.2261 89.8965 100.206 88.9119 100.206 87.6244C100.206 86.337 99.2261 85.3524 97.9452 85.3524H53.4932C52.2124 85.3524 51.2329 86.337 51.2329 87.6244C51.2329 88.9119 52.2124 89.8965 53.4932 89.8965Z" fill="white"/>
</svg>
