<svg width="85" height="84" viewBox="0 0 85 84" fill="none" xmlns="http://www.w3.org/2000/svg">
<path d="M42.5 0C19.0615 0 4.11213e-05 18.8372 0 42C4.11213e-05 65.1627 19.0615 84 42.5 84C65.9385 84 85 65.1627 85 42C85 18.8372 65.9385 0 42.5 0ZM42.5 5.58071C62.876 5.58071 79.3528 21.8637 79.3529 42C79.3528 62.1363 62.876 78.3986 42.5 78.3986C22.124 78.3986 5.6681 62.1363 5.66806 42C5.6681 21.8637 22.124 5.58071 42.5 5.58071Z" fill="#4C61F4"/>
<path d="M41.1308 66.0071C40.5221 66.067 39.9637 66.3162 39.5687 66.7041C39.1736 67.0921 38.9715 67.5899 39.0032 68.0966C39.035 68.6034 39.2982 69.0812 39.7396 69.4333C40.181 69.7854 40.7676 69.9854 41.3805 69.9929C41.7137 70.0162 42.0492 69.9819 42.3656 69.8923C42.6821 69.8028 42.9726 69.6599 43.2188 69.4725C43.4651 69.2852 43.6616 69.0576 43.7961 68.8041C43.9306 68.5506 44 68.2768 44 68C44 67.7232 43.9306 67.4494 43.7961 67.1959C43.6616 66.9424 43.4651 66.7148 43.2188 66.5275C42.9726 66.3401 42.6821 66.1972 42.3656 66.1077C42.0492 66.0181 41.7137 65.9838 41.3805 66.0071C41.2973 66.0035 41.214 66.0035 41.1308 66.0071Z" fill="#4C61F4"/>
<path d="M42.221 12C32.8422 12 24.7611 17.6669 21.2817 25.7715C21.1158 26.1115 21.021 26.4815 21.0031 26.859C20.9852 27.2366 21.0446 27.6137 21.1775 27.9677C21.3105 28.3217 21.5144 28.6451 21.7767 28.9182C22.039 29.1913 22.3544 29.4086 22.7036 29.5567C23.0528 29.7047 23.4285 29.7806 23.808 29.7796C24.1876 29.7785 24.5629 29.7005 24.9113 29.5505C25.2597 29.4006 25.5739 29.1818 25.8347 28.9073C26.0955 28.6327 26.2976 28.3083 26.4287 27.9536C29.048 21.8523 35.1047 17.5786 42.221 17.5786C51.7407 17.5786 59.3982 25.2045 59.3982 34.685C59.3982 41.8831 55.208 46.3656 50.5099 49.9386C48.1608 51.7252 45.7389 53.186 43.7506 54.5497C42.7565 55.2317 41.8706 55.8741 41.0841 56.67C40.2976 57.4658 39.4305 58.5628 39.4305 60.2107C39.4305 60.9505 39.7255 61.6599 40.2508 62.183C40.7761 62.7061 41.4885 63 42.2313 63C42.9742 63 43.6866 62.7061 44.2118 62.183C44.7371 61.6599 45.0322 60.9505 45.0322 60.2107C45.0322 60.8462 44.7675 60.8904 45.0736 60.5816C45.3796 60.2717 46.0552 59.7437 46.9339 59.1406C48.6913 57.9352 51.2754 56.3765 53.9206 54.3648C59.2109 50.3414 65 44.1086 65 34.6853C65 22.1907 54.7673 12.0003 42.221 12.0003L42.221 12Z" fill="#4C61F4"/>
</svg>
