<svg width="18" height="18" viewBox="0 0 18 18" fill="none" xmlns="http://www.w3.org/2000/svg">
<path d="M4.67906 15.7472C5.8909 16.4158 7.28788 16.7836 8.76902 16.7836C13.4312 16.7836 17.2183 13.0223 17.2183 8.39181C17.2183 3.76127 13.4312 0 8.76902 0C4.08997 0 0.319792 3.76127 0.319792 8.39181C0.319792 9.9799 0.757401 11.4677 1.53163 12.7214L0 17.2183L4.67906 15.7472ZM8.76902 1.42092C12.6402 1.42092 15.8044 4.54695 15.8044 8.40852C15.8044 12.2534 12.657 15.3961 8.76902 15.3961C7.33838 15.3961 6.00872 14.9782 4.89786 14.2427L2.18805 15.0952L3.06327 12.5041C2.22171 11.3507 1.71678 9.92975 1.71678 8.40852C1.73361 4.54695 4.88103 1.42092 8.76902 1.42092Z" fill="#AE1926"/>
<path d="M9.05618 12.3715C11.108 13.3873 11.124 13.0789 11.5087 13.0608C11.8934 13.0427 12.743 12.5529 12.9354 12.0087C13.1277 11.4645 13.1438 11.011 13.0957 10.9021C13.0476 10.8114 12.9193 10.7389 12.7109 10.6119C12.5026 10.4849 11.5248 9.88629 11.3324 9.79559C11.14 9.70489 11.0118 9.66861 10.8675 9.88629C10.7233 10.104 10.3065 10.6119 10.1943 10.7752C10.066 10.9203 9.95384 10.9384 9.74546 10.8114C9.53707 10.6845 8.89588 10.4124 8.12646 9.59605C7.53336 8.96115 7.14864 8.18112 7.03644 7.9453C6.92423 7.70948 7.03644 7.5825 7.14864 7.47366C7.24482 7.36482 7.35703 7.20156 7.46924 7.07458C7.58145 6.9476 7.61351 6.8569 7.69365 6.69364C7.7738 6.54852 7.74174 6.4034 7.69365 6.29456C7.64557 6.16758 7.27688 5.00661 7.11659 4.53497C6.95629 4.06333 6.77996 4.13589 6.66775 4.13589C6.55555 4.13589 6.41128 4.09961 6.26701 4.09961C6.12274 4.09961 5.89833 4.13589 5.70597 4.37171C5.51362 4.58939 4.95258 5.13359 4.92052 6.27642C4.88846 7.41924 5.57773 8.56206 5.67391 8.70718C5.75406 8.87045 7.00438 11.3556 9.05618 12.3715Z" fill="#AE1926"/>
</svg>
