<svg width="99" height="98" viewBox="0 0 99 98" fill="none" xmlns="http://www.w3.org/2000/svg">
<path fill-rule="evenodd" clip-rule="evenodd" d="M31.1397 6.09601C31.1397 4.97435 32.0501 4.06401 33.1717 4.06401H45.3638C46.4854 4.06401 47.3958 4.97435 47.3958 6.09601V8.12802H31.1397V6.09601ZM20.9797 40.6401H25.0437V32.5121H20.9797V40.6401ZM43.3318 65.0241C44.4534 65.0241 45.3638 64.1158 45.3638 62.9921C45.3638 61.8705 44.4534 60.9601 43.3318 60.9601H4.72368V38.6081H16.9157V42.6721C16.9157 43.7938 17.826 44.7041 18.9477 44.7041H27.0757C28.1974 44.7041 29.1077 43.7938 29.1077 42.6721V38.6081H49.4278V42.6721C49.4278 43.7938 50.3381 44.7041 51.4598 44.7041H53.4918C54.6155 44.7041 55.5238 43.7938 55.5238 42.6721C55.5238 41.5504 54.6155 40.6401 53.4918 40.6401V32.5121H55.5238C56.6475 32.5121 57.5558 31.6017 57.5558 30.4801C57.5558 29.3584 56.6475 28.4481 55.5238 28.4481H51.4598C50.3381 28.4481 49.4278 29.3584 49.4278 30.4801V34.5441H29.1077V30.4801C29.1077 29.3584 28.1974 28.4481 27.0757 28.4481H18.9477C17.826 28.4481 16.9157 29.3584 16.9157 30.4801V34.5441H4.72368V14.224C4.72368 13.1024 5.63402 12.192 6.75568 12.192H29.1077H49.4278H71.7798C72.9035 12.192 73.8118 13.1024 73.8118 14.224V18.288C73.8118 19.4097 74.7201 20.32 75.8438 20.32C76.9675 20.32 77.8758 19.4097 77.8758 18.288V14.224C77.8758 10.857 75.1469 8.12802 71.7798 8.12802H51.4598V6.09601C51.4598 2.72898 48.7308 0 45.3638 0H33.1717C29.8047 0 27.0757 2.72898 27.0757 6.09601V8.12802H6.75568C3.38865 8.12802 0.659668 10.857 0.659668 14.224V67.0562C0.659668 70.4232 3.38865 73.1522 6.75568 73.1522H43.3318C44.4534 73.1522 45.3638 72.2439 45.3638 71.1202C45.3638 69.9965 44.4534 69.0882 43.3318 69.0882H6.75568C5.63402 69.0882 4.72368 68.1798 4.72368 67.0562V65.0241H43.3318ZM94.1319 93.4722H90.0679V83.3122C90.0679 82.1885 89.1596 81.2802 88.0359 81.2802C86.9122 81.2802 86.0039 82.1885 86.0039 83.3122V93.4722H75.8438V75.8852L82.9071 67.0562H83.9719C89.5843 67.0562 94.1319 71.6038 94.1319 77.2162V93.4722ZM53.4918 77.2162C53.4918 71.6038 58.0394 67.0562 63.6518 67.0562H64.7166L71.7798 75.8852V93.4722H61.6198V83.3122C61.6198 82.1885 60.7115 81.2802 59.5878 81.2802C58.4641 81.2802 57.5558 82.1885 57.5558 83.3122V93.4722H53.4918V77.2162ZM75.8438 60.9601C75.8438 63.0633 76.9086 64.9165 78.5281 66.0117L73.8118 71.872L69.0956 66.0117C70.7151 64.9165 71.7798 63.0633 71.7798 60.9601H75.8438ZM65.6838 50.8001V40.6401H81.9398V50.8001C81.9398 54.1671 79.2109 56.8961 75.8438 56.8961H71.7798C68.4128 56.8961 65.6838 54.1671 65.6838 50.8001ZM67.7158 28.4481H79.9079C81.0315 28.4481 81.9398 29.3584 81.9398 30.4801V36.5761H65.6838V30.4801C65.6838 29.3584 66.5921 28.4481 67.7158 28.4481ZM83.9719 62.9921H81.9398C80.8162 62.9921 79.9079 62.0818 79.9079 60.9601V60.1026C83.4943 58.5339 86.0039 54.9637 86.0039 50.8001V50.4262C88.3651 49.587 90.0679 47.3538 90.0679 44.7041C90.0679 42.0544 88.3651 39.8212 86.0039 38.982V38.6081V30.4801C86.0039 27.113 83.2749 24.3841 79.9079 24.3841H67.7158C64.3488 24.3841 61.6198 27.113 61.6198 30.4801V38.6081V38.982C59.2586 39.8212 57.5558 42.0544 57.5558 44.7041C57.5558 47.3538 59.2586 49.587 61.6198 50.4262V50.8001C61.6198 54.9637 64.1293 58.5339 67.7158 60.1026V60.9601C67.7158 62.0818 66.8075 62.9921 65.6838 62.9921H63.6518C55.7961 62.9921 49.4278 69.3605 49.4278 77.2162V95.5042C49.4278 96.6279 50.3381 97.5362 51.4598 97.5362H96.1639C97.2876 97.5362 98.1959 96.6279 98.1959 95.5042V77.2162C98.1959 69.3605 91.8276 62.9921 83.9719 62.9921Z" fill="#4C61F4"/>
</svg>
