<svg width="99" height="94" viewBox="0 0 99 94" fill="none" xmlns="http://www.w3.org/2000/svg">
<path d="M46.23 54.1732L47.2794 55.3543L48.4044 54.245L88.1665 15.0408C90.3684 12.9711 93.8196 13.0056 95.8717 15.0289C98.0558 17.1824 98.0221 20.5222 95.8946 22.5325L95.883 22.5434L95.8717 22.5546L50.9096 66.8858L50.8864 66.9087L50.8642 66.9326C49.9052 67.9641 48.5873 68.5 47.1207 68.5H47.12H47.1194H47.1187H47.118H47.1174H47.1167H47.1161H47.1154H47.1147H47.1141H47.1134H47.1128H47.1122H47.1115H47.1109H47.1102H47.1096H47.109H47.1083H47.1077H47.1071H47.1065H47.1059H47.1052H47.1046H47.104H47.1034H47.1028H47.1022H47.1016H47.101H47.1004H47.0998H47.0992H47.0986H47.098H47.0974H47.0969H47.0963H47.0957H47.0951H47.0945H47.094H47.0934H47.0928H47.0923H47.0917H47.0911H47.0906H47.09H47.0895H47.0889H47.0884H47.0878H47.0873H47.0867H47.0862H47.0856H47.0851H47.0846H47.084H47.0835H47.083H47.0824H47.0819H47.0814H47.0809H47.0803H47.0798H47.0793H47.0788H47.0783H47.0778H47.0773H47.0768H47.0762H47.0757H47.0752H47.0747H47.0742H47.0737H47.0732H47.0728H47.0723H47.0718H47.0713H47.0708H47.0703H47.0698H47.0694H47.0689H47.0684H47.0679H47.0675H47.067H47.0665H47.066H47.0656H47.0651H47.0646H47.0642H47.0637H47.0633H47.0628H47.0623H47.0619H47.0614H47.061H47.0605H47.0601H47.0596H47.0592H47.0588H47.0583H47.0579H47.0574H47.057H47.0566H47.0561H47.0557H47.0553H47.0548H47.0544H47.054H47.0535H47.0531H47.0527H47.0523H47.0518H47.0514H47.051H47.0506H47.0502H47.0498H47.0493H47.0489H47.0485H47.0481H47.0477H47.0473H47.0469H47.0465H47.0461H47.0457H47.0453H47.0449H47.0445H47.0441H47.0437H47.0433H47.0429H47.0425H47.0421H47.0417H47.0413H47.0409H47.0405H47.0401H47.0398H47.0394H47.039H47.0386H47.0382H47.0378H47.0375H47.0371H47.0367H47.0363H47.0359H47.0356H47.0352H47.0348H47.0344H47.0341H47.0337H47.0333H47.033H47.0326H47.0322H47.0319H47.0315H47.0311H47.0308H47.0304H47.03H47.0297H47.0293H47.0289H47.0286H47.0282H47.0279H47.0275H47.0271H47.0268H47.0264H47.0261H47.0257H47.0254H47.025H47.0246H47.0243H47.0239H47.0236H47.0232H47.0229H47.0225H47.0222H47.0218H47.0215H47.0211H47.0208H47.0204H47.0201H47.0197H47.0194H47.0191H47.0187H47.0184H47.018H47.0177H47.0173H47.017H47.0166H47.0163H47.016H47.0156H47.0153H47.0149H47.0146H47.0142H47.0139H47.0136H47.0132H47.0129H47.0125H47.0122H47.0119H47.0115H47.0112H47.0108H47.0105H47.0102H47.0098H47.0095H47.0091H47.0088H47.0085H47.0081H47.0078H47.0075H47.0071H47.0068H47.0064H47.0061H47.0058H47.0054H47.0051H47.0048H47.0044H47.0041H47.0037H47.0034H47.0031H47.0027H47.0024H47.0021H47.0017H47.0014H47.001H47.0007H47.0004H47H46.9997H46.9993H46.999H46.9987H46.9983H46.998H46.9976H46.9973H46.997H46.9966H46.9963H46.9959H46.9956H46.9953H46.9949H46.9946H46.9942H46.9939H46.9935H46.9932H46.9928H46.9925H46.9922H46.9918H46.9915H46.9911H46.9908H46.9904H46.9901H46.9897H46.9894H46.989H46.9887H46.9883H46.988H46.9876H46.9873H46.9869H46.9866H46.9862H46.9859H46.9855H46.9851H46.9848H46.9844H46.9841H46.9837H46.9834H46.983H46.9826H46.9823H46.9819H46.9816H46.9812H46.9808H46.9805H46.9801H46.9797H46.9794H46.979H46.9786H46.9783H46.9779H46.9775H46.9772H46.9768H46.9764H46.976H46.9757H46.9753H46.9749H46.9745H46.9742H46.9738H46.9734H46.973H46.9726H46.9723H46.9719H46.9715H46.9711H46.9707H46.9703H46.9699H46.9695H46.9692H46.9688H46.9684H46.968H46.9676H46.9672H46.9668H46.9664H46.966H46.9656H46.9652H46.9648H46.9644H46.964H46.9636H46.9632H46.9628H46.9623H46.9619H46.9615H46.9611H46.9607H46.9603H46.9599H46.9594H46.959H46.9586H46.9582H46.9577H46.9573H46.9569H46.9565H46.956H46.9556H46.9552H46.9547H46.9543H46.9539H46.9534H46.953H46.9525H46.9521H46.9517H46.9512H46.9508H46.9503H46.9499H46.9494H46.949H46.9485H46.9481H46.9476H46.9471H46.9467H46.9462H46.9458H46.9453H46.9448H46.9444H46.9439H46.9434H46.9429H46.9425H46.942H46.9415H46.941H46.9405H46.9401H46.9396H46.9391H46.9386H46.9381H46.9376H46.9371H46.9366H46.9361H46.9356H46.9351H46.9346H46.9341H46.9336H46.9331H46.9326H46.9321H46.9316H46.931H46.9305H46.93H46.9295H46.9289H46.9284H46.9279H46.9274H46.9268H46.9263H46.9258H46.9252H46.9247H46.9241H46.9236H46.923H46.9225H46.9219H46.9214H46.9208H46.9203H46.9197H46.9192H46.9186H46.918H46.9175H46.9169H46.9163H46.9157H46.9152H46.9146H46.914H46.9134H46.9128H46.9122H46.9117H46.9111H46.9105H46.9099H46.9093H46.9087H46.9081H46.9075H46.9068H46.9062H46.9056H46.905H46.9044H46.9038H46.9031H46.9025H46.9019H46.9013H46.9006H46.9H46.8993H46.8987H46.8981H46.8974H46.8968H46.8961H46.8955H46.8948H46.8941H46.8935H46.8928H46.8922H46.8915H46.8908H46.8901C45.523 68.5 44.0655 67.8123 43.0407 66.7153L25.8741 47.5176C25.8739 47.5175 25.8738 47.5173 25.8737 47.5172C23.8833 45.2867 24.0774 41.9285 26.3145 39.9875C28.5931 38.0104 32.0348 38.2078 34.0108 40.4206C34.0111 40.4209 34.0114 40.4213 34.0117 40.4216L46.23 54.1732Z" fill="#4C61F4" stroke="white" stroke-width="3"/>
<path d="M80.2439 81.7439H81.7439V80.2439V49.5219C81.7439 46.5675 84.1674 44.1439 87.1219 44.1439C90.0764 44.1439 92.5 46.5675 92.5 49.5219V84.9439C92.5 89.1594 89.1594 92.5 84.9439 92.5H9.0561C4.84062 92.5 1.5 89.1594 1.5 84.9439V9.0561C1.5 4.84062 4.84062 1.5 9.0561 1.5H73.4805C76.435 1.5 78.8585 3.92355 78.8585 6.87805C78.8585 9.83255 76.435 12.2561 73.4805 12.2561H13.7561H12.2561V13.7561V80.2439V81.7439H13.7561H80.2439Z" fill="#4C61F4" stroke="white" stroke-width="3"/>
</svg>
