<svg width="98" height="82" viewBox="0 0 98 82" fill="none" xmlns="http://www.w3.org/2000/svg">
<path fill-rule="evenodd" clip-rule="evenodd" d="M44.5362 75.032H53.1112V68.6006H44.5362V75.032ZM32.7454 37.8504L47.6511 43.7125C48.396 44.0041 49.2514 44.0041 49.9963 43.7125L64.902 37.8504V44.4832C63.8976 45.27 62.6424 45.822 61.4184 46.2915C58.3645 47.3773 53.8187 48.2348 48.8237 48.2348C43.8287 48.2348 39.2828 47.3773 36.229 46.2915C35.215 45.926 33.7198 45.2368 32.7454 44.4832V37.8504ZM48.8237 20.6006L70.0267 28.9409L48.8237 37.248L27.6207 28.9409L48.8237 20.6006ZM47.6511 14.1349L17.6383 25.9257C16.4388 26.392 15.5953 27.6203 15.5953 28.9077C15.5953 30.1939 16.4388 31.4566 17.6383 31.9218L26.3141 35.339V45.0192C26.3141 47.3194 27.7204 48.7633 29.0946 49.8094C30.4687 50.8556 32.1248 51.6584 34.0853 52.3552C38.0062 53.7486 43.1298 54.6661 48.8237 54.6661C54.5176 54.6661 59.6412 53.7486 63.5621 52.3552C65.5226 51.6584 67.1787 50.8556 68.5528 49.8094C69.927 48.7633 71.3333 47.3194 71.3333 45.0192V35.339L73.4771 34.5008V37.9512C72.82 38.7068 72.4052 39.6748 72.4052 40.7316C72.4052 43.0619 74.3624 45.0192 76.6927 45.0192C79.023 45.0192 80.9803 43.0619 80.9803 40.7316C80.9803 39.6748 80.5654 38.7068 79.9084 37.9512V31.955L80.0091 31.9218C81.2086 31.4566 82.0521 30.1939 82.0521 28.9077C82.0521 27.6214 81.2086 26.393 80.0091 25.9268L49.9963 14.136C49.1667 13.8273 48.2106 13.9345 47.6511 14.1349ZM8.09206 6.43131H89.5553C90.2038 6.43131 90.6272 6.85363 90.6272 7.5032V61.0975C90.6272 61.7459 90.2038 62.1693 89.5553 62.1693H8.09206C7.4425 62.1693 7.02018 61.7459 7.02018 61.0975V7.5032C7.02018 6.85363 7.4425 6.43131 8.09206 6.43131ZM8.09206 0C3.99103 0 0.588867 3.40216 0.588867 7.5032V61.0975C0.588867 65.1985 3.99103 68.6006 8.09206 68.6006H38.1048V75.032H35.9611C34.185 75.032 32.7454 76.4715 32.7454 78.2476C32.7454 80.0237 34.185 81.4633 35.9611 81.4633H61.6863C63.4624 81.4633 64.902 80.0237 64.902 78.2476C64.902 76.4715 63.4624 75.032 61.6863 75.032H59.5425V68.6006H89.5553C93.6564 68.6006 97.0585 65.1985 97.0585 61.0975V7.5032C97.0585 3.40216 93.6564 0 89.5553 0H8.09206Z" fill="#4C61F4"/>
</svg>
