<svg width="19" height="19" viewBox="0 0 19 19" fill="none" xmlns="http://www.w3.org/2000/svg">
<path d="M9.786 6.92197C9.58535 6.92197 9.38471 6.94344 9.31783 7.15814C9.20636 7.48018 9.45159 7.54459 9.67453 7.58753C10.4771 7.71635 10.9007 8.16722 10.9676 8.94014C10.9899 9.15484 11.1236 9.3266 11.3466 9.28366C11.6364 9.24072 11.6587 9.00455 11.6587 8.76838C11.6587 7.90958 10.6555 6.9005 9.786 6.92197Z" fill="#AE1926"/>
<path d="M12.2078 11.7046C11.9455 11.5013 11.6685 11.3125 11.4061 11.1238C10.8668 10.7463 10.3712 10.7173 9.96308 11.3271C9.72986 11.6755 9.42376 11.69 9.08851 11.5303C8.1702 11.1238 7.47054 10.485 7.04783 9.55577C6.85833 9.14924 6.87291 8.78627 7.29562 8.49589C7.52884 8.33618 7.74749 8.16196 7.73291 7.82802C7.70376 7.39246 6.63969 5.92605 6.23155 5.78086C6.05664 5.72279 5.88172 5.72279 5.70681 5.78086C4.71562 6.1148 4.30748 6.91333 4.70104 7.87158C5.86715 10.7173 7.9224 12.7064 10.7356 13.9114C10.896 13.984 11.0709 14.0131 11.1729 14.0276C11.8143 14.0276 12.5722 13.4178 12.7909 12.808C12.995 12.2127 12.5577 11.9804 12.2078 11.7046Z" fill="#AE1926"/>
<path d="M9.93888 5.78121C9.68156 5.746 9.35073 5.64036 9.2956 5.97487C9.24046 6.32698 9.60805 6.29177 9.84698 6.34458C11.446 6.69669 12.0157 7.24247 12.2731 8.77415C12.3098 9.00302 12.2363 9.33753 12.6223 9.28471C12.9163 9.2495 12.8061 8.9502 12.8428 8.77415C12.8612 7.29528 11.5379 5.95726 9.93888 5.78121Z" fill="#AE1926"/>
<path d="M9.83804 5.14525C12.1938 5.40882 13.2721 6.21151 13.5707 7.92471C13.6039 8.08045 13.521 8.32006 13.8362 8.32006C14.168 8.32006 14.085 8.09243 14.085 7.93669C14.1182 6.31933 12.1772 4.83375 9.9044 4.77385C9.7385 4.78583 9.39011 4.68999 9.35693 4.96554C9.35693 5.15723 9.65555 5.12128 9.83804 5.14525Z" fill="#AE1926"/>
<path d="M9.29027 17.5805C13.8689 17.5805 17.5805 13.8689 17.5805 9.29027C17.5805 4.71168 13.8689 1 9.29027 1C4.71168 1 1 4.71168 1 9.29027C1 13.8689 4.71168 17.5805 9.29027 17.5805Z" stroke="#AE1926" stroke-miterlimit="10"/>
</svg>
