<svg width="11" height="12" viewBox="0 0 11 12" fill="none" xmlns="http://www.w3.org/2000/svg">
<path d="M10.1572 8.63748C9.80908 8.34326 9.44161 8.07005 9.09348 7.79685C8.37788 7.25044 7.72029 7.20841 7.17876 8.09107C6.86931 8.59545 6.46315 8.61646 6.01832 8.38529C4.79986 7.79685 3.87151 6.87215 3.31063 5.52714C3.0592 4.9387 3.07854 4.41331 3.63942 3.99299C3.94887 3.76182 4.23898 3.50963 4.21964 3.02627C4.18096 2.3958 2.76909 0.273205 2.22755 0.0630473C1.99546 -0.0210158 1.76338 -0.0210158 1.53129 0.0630473C0.216125 0.54641 -0.325412 1.70228 0.196785 3.08932C1.74404 7.20841 4.47107 10.0876 8.20381 11.8319C8.41656 11.937 8.64864 11.979 8.78403 12C9.63502 12 10.6407 11.1173 10.9308 10.2347C11.2016 9.37303 10.6214 9.03678 10.1572 8.63748Z" fill="#AE1926"/>
</svg>
