<svg width="91" height="87" viewBox="0 0 91 87" fill="none" xmlns="http://www.w3.org/2000/svg">
<path d="M74.4534 66.1444C80.6797 66.1444 83.8355 73.7515 79.4004 78.1962C74.6667 82.94 69.5065 78.1962 69.4639 78.1962C67.2463 75.9739 66.7772 72.5976 68.2698 69.8197L59.0583 60.2039C55.5614 62.2553 51.4247 63.0673 47.2881 62.3408L46.7763 65.0332C58.2054 69.777 54.8364 87 42.4265 87C32.3194 87 27.2446 74.6918 34.3664 67.5119C36.4987 65.4178 39.356 64.1785 42.5544 64.1785L43.1941 61.1014C39.5266 59.4347 36.5414 56.5713 34.7929 52.9814L18.7581 62.4263C24.1741 72.4267 11.0392 82.3844 2.9365 74.2216C-3.37507 67.9393 1.18803 57.1696 9.97305 57.1696C12.1906 57.1696 14.2376 57.8961 15.9008 59.1355L33.3429 48.8359C32.2341 43.451 33.7694 37.9807 37.2237 33.9634L26.2637 19.6893C23.1932 19.9885 21.4021 17.9371 21.3595 17.9371C15.6023 12.1676 24.5579 3.57748 30.0592 9.51791C32.2341 11.8257 32.2768 15.3729 30.1445 17.7234L40.4221 31.1001C46.0087 27.211 53.3864 26.9973 59.2289 30.5445L71.8947 16.7405C68.8669 12.5095 69.336 6.78275 73.0035 3.10737C79.6562 -3.55959 91 1.22695 91 10.5863C91 18.7918 82.0444 23.8348 75.0505 19.6466L62.5979 33.2369C69.208 39.9894 69.1227 50.8445 62.47 57.5542L71.3403 66.8709C72.2785 66.4008 73.3447 66.1444 74.4534 66.1444ZM47.416 70.5463C42.9809 66.1016 35.3473 69.2642 35.3473 75.5892C35.3473 84.9059 49.5057 84.9059 49.5057 75.5892C49.5057 73.6233 48.6954 71.8711 47.416 70.5463ZM84.859 6.1417C82.4282 3.70569 78.4622 3.70569 76.0313 6.1417C75.5622 6.1417 72.1932 11.1419 76.0313 14.9882C81.8738 20.8432 90.6588 11.9539 84.859 6.1417ZM59.3995 36.143C51.2968 27.9803 37.309 33.7925 37.309 45.3315C37.309 56.8704 51.2968 62.6399 59.3995 54.4772C64.4743 49.4342 64.4743 41.2287 59.3995 36.143ZM26.9034 12.3813C25.2402 10.7573 22.7668 13.236 24.3873 14.9028C26.0932 16.5695 28.524 13.9626 26.9034 12.3813ZM14.0244 63.1528C8.69368 57.8534 0.676277 65.8879 5.96435 71.2301C11.2524 76.5294 19.3125 68.4522 14.0244 63.1528ZM72.577 71.1873C71.4256 72.2985 71.4256 74.0507 72.4917 75.1619C75.0931 77.7261 78.9313 73.7515 76.3725 71.2728C75.3064 70.2044 73.6432 70.2044 72.577 71.1873Z" fill="#4C61F4"/>
</svg>
