<svg width="15" height="15" viewBox="0 0 15 15" fill="none" xmlns="http://www.w3.org/2000/svg">
<path d="M0.552147 7.5C0.552147 11.3497 3.66564 14.4632 7.5 14.4632C7.8681 14.4632 8.2362 14.4325 8.58896 14.3712C9.23313 14.7699 9.98466 15 10.7975 15C13.1135 15 15 13.1135 15 10.7975C15 9.98466 14.7699 9.23313 14.3712 8.58896C14.4325 8.23619 14.4632 7.8681 14.4632 7.5C14.4632 3.65031 11.3497 0.53681 7.5 0.53681C7.1319 0.53681 6.7638 0.567486 6.41104 0.628835C5.76687 0.230062 5.01534 0 4.20245 0C1.8865 0 0 1.88651 0 4.20246C0 5.01534 0.230061 5.76687 0.628834 6.41104C0.582822 6.76381 0.552147 7.1319 0.552147 7.5ZM9.04908 8.74233C8.86503 8.55828 8.61963 8.43559 8.32822 8.34356C8.03681 8.25154 7.63804 8.14417 7.1319 8.03681C6.45706 7.88344 5.88957 7.71472 5.44479 7.51534C4.98466 7.31595 4.6319 7.05522 4.35583 6.70246C4.07975 6.36503 3.95705 5.93559 3.95705 5.42945C3.95705 4.95399 4.09509 4.5092 4.3865 4.1411C4.67791 3.75767 5.07669 3.4816 5.6135 3.28221C6.15031 3.08283 6.77914 2.97546 7.5 2.97546C8.08282 2.97546 8.57362 3.03681 9.00307 3.17485C9.41718 3.31288 9.76994 3.4816 10.0613 3.71166C10.3374 3.92638 10.5521 4.17178 10.6748 4.41718C10.7975 4.66258 10.8742 4.90797 10.8742 5.13804C10.8742 5.35276 10.7975 5.55215 10.6288 5.72086C10.4601 5.88957 10.2607 5.98159 10.0153 5.98159C9.80061 5.98159 9.61656 5.93558 9.49387 5.82822C9.37117 5.72086 9.24847 5.55215 9.12577 5.32209C8.95706 5 8.75767 4.7546 8.52761 4.57055C8.29755 4.40184 7.92945 4.29448 7.39264 4.30982C6.90184 4.30982 6.5184 4.40184 6.22699 4.60123C5.93558 4.80061 5.79755 5.03067 5.79755 5.29141C5.79755 5.46012 5.84356 5.59816 5.95092 5.72086C6.04294 5.84356 6.18098 5.95092 6.36503 6.04295C6.53374 6.13497 6.71779 6.19632 6.90184 6.25767C7.08589 6.30368 7.39264 6.38037 7.80675 6.48773C8.32822 6.59509 8.80368 6.73313 9.23313 6.87117C9.66258 7.0092 10.0307 7.17791 10.3221 7.3773C10.6288 7.57669 10.8589 7.82208 11.0276 8.12883C11.1963 8.43558 11.2883 8.80368 11.2883 9.24847C11.2883 9.78528 11.135 10.2607 10.8436 10.6748C10.5521 11.1043 10.1227 11.4264 9.55521 11.6718C8.98773 11.9172 8.31288 12.0245 7.54601 12.0245C6.62577 12.0245 5.8589 11.8558 5.2454 11.5337C4.81595 11.3037 4.46319 10.9816 4.20245 10.5982C3.92638 10.1994 3.80368 9.81595 3.80368 9.44785C3.80368 9.23313 3.89571 9.03374 4.04908 8.88037C4.21779 8.727 4.43251 8.65031 4.67791 8.65031C4.8773 8.65031 5.06135 8.71166 5.19939 8.83436C5.33742 8.95706 5.46012 9.1411 5.56748 9.37117C5.69018 9.64724 5.81288 9.8773 5.95092 10.0613C6.08896 10.2454 6.27301 10.3988 6.5184 10.5061C6.7638 10.6288 7.08589 10.6902 7.5 10.6902C8.05215 10.6902 8.51227 10.5675 8.84969 10.3374C9.20245 10.092 9.35583 9.80061 9.35583 9.44785C9.32515 9.1411 9.23313 8.91104 9.04908 8.74233Z" fill="#AE1926"/>
</svg>
