<svg width="27" height="27" viewBox="0 0 27 27" fill="none" xmlns="http://www.w3.org/2000/svg">
<circle cx="13.5" cy="13.5" r="12.5" stroke="#023FFF" stroke-width="2"/>
<path d="M16.238 20H11.594V19.586L12.764 19.478V11.81L11.216 11.72V11.342L15.068 11.108V19.478L16.238 19.586V20ZM15.194 8.084C15.194 8.444 15.062 8.756 14.798 9.02C14.546 9.284 14.228 9.416 13.844 9.416C13.46 9.416 13.136 9.29 12.872 9.038C12.62 8.774 12.494 8.456 12.494 8.084C12.494 7.7 12.626 7.376 12.89 7.112C13.154 6.836 13.472 6.698 13.844 6.698C14.216 6.698 14.534 6.836 14.798 7.112C15.062 7.388 15.194 7.712 15.194 8.084Z" fill="#023FFF"/>
</svg>
