<svg width="98" height="98" viewBox="0 0 98 98" fill="none" xmlns="http://www.w3.org/2000/svg">
<path fill-rule="evenodd" clip-rule="evenodd" d="M30.4801 6.09601C30.4801 4.97435 31.3904 4.06401 32.5121 4.06401H44.7041C45.8258 4.06401 46.7361 4.97435 46.7361 6.09601V8.12802H30.4801V6.09601ZM20.32 40.6401H24.3841V32.5121H20.32V40.6401ZM42.6721 65.0241C43.7938 65.0241 44.7041 64.1158 44.7041 62.9921C44.7041 61.8705 43.7938 60.9601 42.6721 60.9601H4.06401V38.6081H16.256V42.6721C16.256 43.7938 17.1664 44.7041 18.288 44.7041H26.4161C27.5377 44.7041 28.4481 43.7938 28.4481 42.6721V38.6081H48.7681V42.6721C48.7681 43.7938 49.6785 44.7041 50.8001 44.7041H52.8321C53.9558 44.7041 54.8641 43.7938 54.8641 42.6721C54.8641 41.5504 53.9558 40.6401 52.8321 40.6401V32.5121H54.8641C55.9878 32.5121 56.8961 31.6017 56.8961 30.4801C56.8961 29.3584 55.9878 28.4481 54.8641 28.4481H50.8001C49.6785 28.4481 48.7681 29.3584 48.7681 30.4801V34.5441H28.4481V30.4801C28.4481 29.3584 27.5377 28.4481 26.4161 28.4481H18.288C17.1664 28.4481 16.256 29.3584 16.256 30.4801V34.5441H4.06401V14.224C4.06401 13.1024 4.97435 12.192 6.09601 12.192H28.4481H48.7681H71.1202C72.2439 12.192 73.1522 13.1024 73.1522 14.224V18.288C73.1522 19.4097 74.0605 20.32 75.1842 20.32C76.3079 20.32 77.2162 19.4097 77.2162 18.288V14.224C77.2162 10.857 74.4872 8.12802 71.1202 8.12802H50.8001V6.09601C50.8001 2.72898 48.0711 0 44.7041 0H32.5121C29.145 0 26.4161 2.72898 26.4161 6.09601V8.12802H6.09601C2.72898 8.12802 0 10.857 0 14.224V67.0562C0 70.4232 2.72898 73.1522 6.09601 73.1522H42.6721C43.7938 73.1522 44.7041 72.2439 44.7041 71.1202C44.7041 69.9965 43.7938 69.0882 42.6721 69.0882H6.09601C4.97435 69.0882 4.06401 68.1799 4.06401 67.0562V65.0241H42.6721ZM93.4722 93.4722H89.4082V83.3122C89.4082 82.1885 88.4999 81.2802 87.3762 81.2802C86.2525 81.2802 85.3442 82.1885 85.3442 83.3122V93.4722H75.1842V75.8852L82.2474 67.0562H83.3122C88.9246 67.0562 93.4722 71.6038 93.4722 77.2162V93.4722ZM52.8321 77.2162C52.8321 71.6038 57.3797 67.0562 62.9921 67.0562H64.0569L71.1202 75.8852V93.4722H60.9601V83.3122C60.9601 82.1885 60.0518 81.2802 58.9281 81.2802C57.8044 81.2802 56.8961 82.1885 56.8961 83.3122V93.4722H52.8321V77.2162ZM75.1842 60.9601C75.1842 63.0633 76.2489 64.9165 77.8685 66.0117L73.1522 71.872L68.4359 66.0117C70.0554 64.9165 71.1202 63.0633 71.1202 60.9601H75.1842ZM65.0241 50.8001V40.6401H81.2802V50.8001C81.2802 54.1672 78.5512 56.8961 75.1842 56.8961H71.1202C67.7531 56.8961 65.0241 54.1672 65.0241 50.8001V50.8001ZM67.0562 28.4481H79.2482C80.3719 28.4481 81.2802 29.3584 81.2802 30.4801V36.5761H65.0241V30.4801C65.0241 29.3584 65.9325 28.4481 67.0562 28.4481V28.4481ZM83.3122 62.9921H81.2802C80.1565 62.9921 79.2482 62.0818 79.2482 60.9601V60.1026C82.8347 58.5339 85.3442 54.9637 85.3442 50.8001V50.4262C87.7054 49.587 89.4082 47.3538 89.4082 44.7041C89.4082 42.0544 87.7054 39.8212 85.3442 38.982V38.6081V30.4801C85.3442 27.113 82.6152 24.3841 79.2482 24.3841H67.0562C63.6891 24.3841 60.9601 27.113 60.9601 30.4801V38.6081V38.982C58.599 39.8212 56.8961 42.0544 56.8961 44.7041C56.8961 47.3538 58.599 49.587 60.9601 50.4262V50.8001C60.9601 54.9637 63.4697 58.5339 67.0562 60.1026V60.9601C67.0562 62.0818 66.1478 62.9921 65.0241 62.9921H62.9921C55.1364 62.9921 48.7681 69.3604 48.7681 77.2162V95.5042C48.7681 96.6279 49.6785 97.5362 50.8001 97.5362H95.5042C96.6279 97.5362 97.5362 96.6279 97.5362 95.5042V77.2162C97.5362 69.3604 91.1679 62.9921 83.3122 62.9921V62.9921Z" fill="white"/>
</svg>
