<svg width="10" height="18" viewBox="0 0 10 18" fill="none" xmlns="http://www.w3.org/2000/svg">
<path d="M8.81748 0H1.18252C0.531277 0 0 0.536023 0 1.19308V16.8069C0 17.464 0.531277 18 1.18252 18H8.81748C9.46872 18 10 17.464 10 16.8069V1.19308C10 0.536023 9.46872 0 8.81748 0ZM3.69323 0.708934C3.69323 0.639769 3.75321 0.587896 3.8132 0.587896H6.1868C6.25536 0.587896 6.30677 0.648415 6.30677 0.708934V0.73487C6.30677 0.804035 6.24679 0.855908 6.1868 0.855908H3.8132C3.74464 0.855908 3.69323 0.795389 3.69323 0.73487V0.708934ZM2.9563 16.366C2.9563 16.5389 2.81919 16.6859 2.63925 16.6859H1.29392C1.12254 16.6859 0.976864 16.5476 0.976864 16.366V16.0548C0.976864 15.8818 1.11397 15.7349 1.29392 15.7349H2.64781C2.81919 15.7349 2.96487 15.8732 2.96487 16.0548V16.366H2.9563ZM2.9563 14.7061C2.9563 14.879 2.81919 15.0259 2.63925 15.0259H1.29392C1.12254 15.0259 0.976864 14.8876 0.976864 14.7061V14.3948C0.976864 14.2219 1.11397 14.0749 1.29392 14.0749H2.64781C2.81919 14.0749 2.96487 14.2133 2.96487 14.3948V14.7061H2.9563ZM2.9563 13.0548C2.9563 13.2277 2.81919 13.3746 2.63925 13.3746H1.29392C1.12254 13.3746 0.976864 13.2363 0.976864 13.0548V12.7435C0.976864 12.5706 1.11397 12.4236 1.29392 12.4236H2.64781C2.81919 12.4236 2.96487 12.562 2.96487 12.7435V13.0548H2.9563ZM2.9563 11.3948C2.9563 11.5677 2.81919 11.7147 2.63925 11.7147H1.29392C1.12254 11.7147 0.976864 11.5764 0.976864 11.3948V11.0836C0.976864 10.9107 1.11397 10.7637 1.29392 10.7637H2.64781C2.81919 10.7637 2.96487 10.902 2.96487 11.0836V11.3948H2.9563ZM5.98972 16.366C5.98972 16.5389 5.85261 16.6859 5.67266 16.6859H4.31877C4.14739 16.6859 4.00171 16.5476 4.00171 16.366V16.0548C4.00171 15.8818 4.13882 15.7349 4.31877 15.7349H5.67266C5.84404 15.7349 5.98972 15.8732 5.98972 16.0548V16.366ZM5.98972 14.7061C5.98972 14.879 5.85261 15.0259 5.67266 15.0259H4.31877C4.14739 15.0259 4.00171 14.8876 4.00171 14.7061V14.3948C4.00171 14.2219 4.13882 14.0749 4.31877 14.0749H5.67266C5.84404 14.0749 5.98972 14.2133 5.98972 14.3948V14.7061ZM5.98972 13.0548C5.98972 13.2277 5.85261 13.3746 5.67266 13.3746H4.31877C4.14739 13.3746 4.00171 13.2363 4.00171 13.0548V12.7435C4.00171 12.5706 4.13882 12.4236 4.31877 12.4236H5.67266C5.84404 12.4236 5.98972 12.562 5.98972 12.7435V13.0548ZM5.98972 11.3948C5.98972 11.5677 5.85261 11.7147 5.67266 11.7147H4.31877C4.14739 11.7147 4.00171 11.5764 4.00171 11.3948V11.0836C4.00171 10.9107 4.13882 10.7637 4.31877 10.7637H5.67266C5.84404 10.7637 5.98972 10.902 5.98972 11.0836V11.3948ZM9.02314 16.366C9.02314 16.5389 8.88603 16.6859 8.70608 16.6859H7.35219C7.18081 16.6859 7.03513 16.5476 7.03513 16.366V16.0548C7.03513 15.8818 7.17224 15.7349 7.35219 15.7349H8.70608C8.87746 15.7349 9.02314 15.8732 9.02314 16.0548V16.366ZM9.02314 14.7061C9.02314 14.879 8.88603 15.0259 8.70608 15.0259H7.35219C7.18081 15.0259 7.03513 14.8876 7.03513 14.7061V14.3948C7.03513 14.2219 7.17224 14.0749 7.35219 14.0749H8.70608C8.87746 14.0749 9.02314 14.2133 9.02314 14.3948V14.7061ZM9.02314 13.0548C9.02314 13.2277 8.88603 13.3746 8.70608 13.3746H7.35219C7.18081 13.3746 7.03513 13.2363 7.03513 13.0548V12.7435C7.03513 12.5706 7.17224 12.4236 7.35219 12.4236H8.70608C8.87746 12.4236 9.02314 12.562 9.02314 12.7435V13.0548ZM9.02314 11.3948C9.02314 11.5677 8.88603 11.7147 8.70608 11.7147H7.35219C7.18081 11.7147 7.03513 11.5764 7.03513 11.3948V11.0836C7.03513 10.9107 7.17224 10.7637 7.35219 10.7637H8.70608C8.87746 10.7637 9.02314 10.902 9.02314 11.0836V11.3948ZM9.02314 10.1499C9.02314 10.1585 9.01457 10.1671 9.006 10.1671H1.00257C0.994002 10.1671 0.985433 10.1585 0.985433 10.1499V1.66859C0.985433 1.65994 0.994002 1.6513 1.00257 1.6513H8.99743C9.006 1.6513 9.01457 1.65994 9.01457 1.66859V10.1499H9.02314Z" fill="#AE1926"/>
</svg>
