<svg width="152" height="93" viewBox="0 0 152 93" fill="none" xmlns="http://www.w3.org/2000/svg">
<path d="M150.622 30.8469L81.7048 0.229656C81.0922 2.66768e-05 80.403 2.66768e-05 79.867 0.229656L10.9501 30.8469C10.5673 31 10.261 31.2297 10.1078 31.5358C9.57179 31.9185 9.26549 32.6074 9.26549 33.2963V61.8469C3.98186 62.9185 0 67.5877 0 73.0988C0 79.4519 5.13048 84.5803 11.4861 84.5803C17.8418 84.5803 22.9723 79.4519 22.9723 73.0988C22.9723 67.5877 18.9904 62.9185 13.7834 61.8469V36.2815L29.864 43.4V72.3334C29.864 77.7679 34.2287 82.6667 42.4987 86.4939C42.805 86.6469 43.1113 86.7235 43.4942 86.7235C44.3365 86.7235 45.1788 86.2642 45.5617 85.4222C46.0977 84.2741 45.5617 82.8963 44.4131 82.3605C38.134 79.4519 34.4584 75.8543 34.4584 72.4099V45.4667L79.867 65.5976C80.1733 65.7506 80.4796 65.8272 80.7859 65.8272C81.0922 65.8272 81.3985 65.7506 81.7048 65.5976L110.267 52.9679V82.284C110.267 82.5136 110.344 82.7432 110.344 82.8963C110.114 82.9729 109.961 83.0494 109.731 83.1259C101.308 86.4939 90.0514 88.3309 78.1058 88.3309C71.4438 88.3309 65.0882 87.7951 59.1919 86.6469C57.9668 86.4173 56.7416 87.2593 56.5118 88.484C56.2821 89.7087 57.1244 90.9334 58.3496 91.163C64.5521 92.3111 71.2141 92.9235 78.1058 92.9235C90.664 92.9235 102.533 90.9334 111.416 87.4124C120.987 83.5852 126.348 78.2272 126.348 72.2568V45.7729L150.622 34.9803C151.464 34.5976 152 33.7556 152 32.9136C152 32.0716 151.464 31.1531 150.622 30.8469ZM18.3778 73.0988C18.3778 76.9259 15.3149 79.9877 11.4861 79.9877C7.65743 79.9877 4.59446 76.9259 4.59446 73.0988C4.59446 69.2716 7.65743 66.2099 11.4861 66.2099C15.3149 66.2099 18.3778 69.2716 18.3778 73.0988ZM121.753 72.3334C121.753 75.242 119.303 78.1506 114.861 80.7531V51.6667C114.861 51.4371 114.785 51.2074 114.708 50.9778L121.753 47.8395V72.3334ZM123.131 42.1753L80.7859 61.005L33.0801 39.8025L17.5355 32.9136L80.7859 4.82225L144.036 32.9136L123.131 42.1753Z" fill="white"/>
<path d="M60.3405 18.9062L31.2423 31.1531C30.0937 31.6124 29.5577 32.9902 30.0171 34.1383C30.4 34.9803 31.2423 35.5161 32.1612 35.5161C32.4675 35.5161 32.7738 35.4395 33.0801 35.363L62.1783 23.1161C63.3269 22.6568 63.863 21.279 63.4035 20.1309C62.8675 18.9828 61.5657 18.447 60.3405 18.9062Z" fill="white"/>
<path d="M66.7729 18.9062C67.1558 19.7482 67.9981 20.284 68.917 20.284C69.2233 20.284 69.5296 20.2074 69.8359 20.1309L83.2364 14.3901C84.385 13.8543 84.921 12.5531 84.4616 11.4049C83.9255 10.2568 82.6238 9.721 81.4752 10.1803L68.0746 15.921C66.8495 16.3803 66.3134 17.758 66.7729 18.9062Z" fill="white"/>
</svg>
