<svg width="81" height="111" viewBox="0 0 81 111" fill="none" xmlns="http://www.w3.org/2000/svg">
<path d="M78.8324 10.2248H75.2594V2.2077C75.2594 1.58802 74.9933 0.968342 74.5372 0.542312C74.0811 0.116283 73.4349 -0.0773668 72.8267 0.0388231L1.86145 10.2635C1.82344 10.2635 1.82344 10.2635 1.78543 10.2635C1.70941 10.2635 1.63339 10.3023 1.55737 10.3023C1.48135 10.3023 1.44334 10.341 1.36732 10.3797C1.2913 10.4184 1.25329 10.4572 1.17727 10.4572C1.10125 10.4959 1.06324 10.5346 0.987216 10.5734C0.911195 10.6121 0.873185 10.6508 0.835175 10.6896C0.759154 10.7283 0.721144 10.767 0.683134 10.8445C0.645123 10.8832 0.607113 10.9607 0.531092 10.9994C0.493082 11.0381 0.455072 11.1156 0.417061 11.1543C0.379051 11.193 0.341041 11.2705 0.30303 11.348C0.26502 11.4254 0.22701 11.4642 0.188999 11.5416C0.150989 11.6191 0.150989 11.6578 0.112979 11.7353C0.0749685 11.8127 0.0749685 11.8902 0.0369581 11.9289C0.0369581 12.0064 -0.00105218 12.0451 -0.00105218 12.1226C-0.00105218 12.2 -0.0390625 12.2775 -0.0390625 12.3549C-0.0390625 12.3937 -0.0390625 12.3937 -0.0390625 12.4324V108.831C-0.0390625 110.032 0.911195 111.039 2.12753 111.039H12.5804C13.7587 111.039 14.747 110.071 14.747 108.831C14.747 107.592 13.7967 106.624 12.5804 106.624H4.29411V14.6013H76.7038V106.624H32.6118C31.4335 106.624 30.4452 107.592 30.4452 108.831C30.4452 110.071 31.3955 111.039 32.6118 111.039H78.8324C80.0107 111.039 80.9989 110.071 80.9989 108.831V12.4324C80.9989 11.193 80.0487 10.2248 78.8324 10.2248ZM70.9642 10.2248H32.7258L70.9642 4.72515V10.2248Z" fill="white"/>
<path d="M40.861 29.9382C29.0018 29.9382 19.3472 39.7756 19.3472 51.8594C19.3472 63.9431 29.0018 73.7805 40.861 73.7805C52.7202 73.7805 62.3749 63.9431 62.3749 51.8594C62.3749 39.7756 52.7202 29.9382 40.861 29.9382ZM57.9277 49.6518H50.1355C49.9455 44.3845 48.9572 39.3109 47.3228 35.5928C52.9863 37.9553 57.1294 43.2613 57.9277 49.6518ZM40.861 69.404C39.2266 69.404 36.2998 63.6333 35.8817 54.067H45.8024C45.4223 63.6333 42.4955 69.404 40.861 69.404ZM35.8817 49.6518C36.2618 40.0855 39.1886 34.3147 40.861 34.3147C42.5335 34.3147 45.4223 40.0855 45.8404 49.6518H35.8817ZM34.3993 35.5928C32.7268 39.3109 31.7765 44.3845 31.5865 49.6518H23.7944C24.5926 43.2613 28.7357 37.9553 34.3993 35.5928ZM23.7944 54.067H31.5865C31.7765 59.3343 32.7648 64.4079 34.3993 68.1259C28.7357 65.7634 24.5926 60.4187 23.7944 54.067ZM47.3228 68.0872C48.9952 64.3691 49.9455 59.2955 50.1355 54.0283H57.9277C57.1294 60.4187 52.9863 65.7634 47.3228 68.0872Z" fill="white"/>
<path d="M48.7294 84.7411C48.7294 83.5405 47.7792 82.5335 46.5628 82.5335H16.4967C15.3183 82.5335 14.3301 83.5018 14.3301 84.7411C14.3301 85.9417 15.2803 86.9487 16.4967 86.9487H46.6008C47.7792 86.91 48.7294 85.9417 48.7294 84.7411Z" fill="white"/>
<path d="M50.8955 84.7411C50.8955 85.9417 51.8458 86.9487 53.0621 86.9487H65.9476C67.1259 86.9487 68.1142 85.9805 68.1142 84.7411C68.1142 83.5405 67.1639 82.5335 65.9476 82.5335H53.0621C51.8458 82.5335 50.8955 83.5018 50.8955 84.7411Z" fill="white"/>
<path d="M7.86816 18.9776V48.9159C7.86816 50.1165 8.81842 51.1235 10.0348 51.1235C11.2511 51.1235 12.2013 50.1552 12.2013 48.9159V18.9776C12.2013 17.777 11.2511 16.77 10.0348 16.77C8.81842 16.77 7.86816 17.777 7.86816 18.9776Z" fill="white"/>
</svg>
