<svg width="66" height="93" viewBox="0 0 66 93" fill="none" xmlns="http://www.w3.org/2000/svg">
<path fill-rule="evenodd" clip-rule="evenodd" d="M43.2708 76.3223C43.2708 77.7062 42.1477 78.8294 40.7638 78.8294H24.4681C23.0842 78.8294 21.9611 77.7062 21.9611 76.3223C21.9611 74.9384 23.0842 73.8153 24.4681 73.8153H40.7638C42.1477 73.8153 43.2708 74.9384 43.2708 76.3223V76.3223ZM50.09 26.1817C50.09 27.5656 48.9668 28.6888 47.5829 28.6888H17.4986C16.1147 28.6888 14.9915 27.5656 14.9915 26.1817C14.9915 24.7979 16.1147 23.6747 17.4986 23.6747H47.5829C48.9668 23.6747 50.09 24.7979 50.09 26.1817V26.1817ZM35.0979 63.015V58.7731H41.912C40.2123 60.884 37.8506 62.4334 35.0979 63.015V63.015ZM23.2647 58.7731H30.0839V63.015C27.3362 62.4334 24.9745 60.884 23.2647 58.7731V58.7731ZM30.0839 39.489V43.7309H23.2647C24.9745 41.62 27.3362 40.0707 30.0839 39.489V39.489ZM41.912 43.7309H35.0979V39.489C37.8506 40.0707 40.2123 41.62 41.912 43.7309V43.7309ZM20.8329 53.7741C20.6574 52.9618 20.5572 52.1195 20.5572 51.252C20.5572 50.3846 20.6574 49.5422 20.8329 48.73C20.858 48.73 20.8831 48.745 20.9081 48.745H30.0839V53.7591H20.9081C20.8831 53.7591 20.858 53.7741 20.8329 53.7741V53.7741ZM44.3238 53.7591H35.0979V48.745H44.2737H44.3238C44.3338 48.745 44.3439 48.74 44.3539 48.74C44.5244 49.5523 44.6297 50.3896 44.6297 51.252C44.6297 52.1144 44.5244 52.9518 44.3539 53.7641C44.3439 53.7641 44.3338 53.7591 44.3238 53.7591V53.7591ZM32.5909 34.2042C23.1745 34.2042 15.5431 41.8356 15.5431 51.252C15.5431 60.6684 23.1745 68.2998 32.5909 68.2998C42.0073 68.2998 49.6437 60.6684 49.6437 51.252C49.6437 41.8356 42.0073 34.2042 32.5909 34.2042V34.2042ZM60.1682 79.8823C60.1682 84.034 56.7988 87.4034 52.6471 87.4034H12.5347C8.38302 87.4034 5.01357 84.034 5.01357 79.8823V26.1817V22.6218C5.01357 18.4651 8.38302 15.1007 12.5347 15.1007H52.6471C56.7988 15.1007 60.1682 18.4651 60.1682 22.6218V79.8823ZM13.5375 9.68548H15.0417L22.5628 8.63253L47.6331 5.07254C50.9825 5.07254 53.7853 7.27372 54.7631 10.3022C54.0711 10.1819 53.3742 10.0866 52.6471 10.0866H12.5347C11.7374 10.0866 10.9703 10.1819 10.2132 10.3223C11.2962 9.98632 12.4043 9.74565 13.5375 9.68548V9.68548ZM60.1582 12.6438C60.1582 12.6237 60.1682 12.6087 60.1682 12.5936C60.1682 12.4382 60.1682 12.2878 60.1582 12.1323C59.9075 5.18787 54.0761 -0.24236 47.1367 0.00834307L22.0614 3.61847L14.3899 4.87198H13.0361C10.9853 4.99232 8.96465 5.46865 7.06934 6.27592C2.74722 8.39686 0.00452578 12.7942 -0.000488281 17.6077V22.6218V26.1817V79.8823C-0.000488281 86.8067 5.61024 92.4175 12.5347 92.4175H52.6471C59.5716 92.4175 65.1823 86.8067 65.1823 79.8823V22.6218C65.1823 18.5303 63.1967 14.9302 60.1582 12.6438V12.6438Z" fill="white"/>
</svg>
