<svg width="18" height="18" viewBox="0 0 18 18" fill="none" xmlns="http://www.w3.org/2000/svg">
<path d="M8.74556 0.0820312C13.947 0.114848 18.1147 4.06927 17.9999 9.25432C17.9507 11.4859 17.1467 13.4549 15.6371 15.0793C13.8158 17.0483 11.5186 18.0164 8.8276 17.9672C6.62888 17.9179 4.67628 17.1303 3.05185 15.6372C1.11566 13.8815 0.114746 11.6499 0.114746 9.0246C0.114746 6.59616 0.984391 4.49589 2.69086 2.77301C4.44656 0.984493 6.61247 0.131256 8.74556 0.0820312ZM12.5523 6.44849C12.5523 6.03828 12.2405 5.85778 11.896 5.92342C11.617 5.97264 11.3545 6.0875 11.0755 6.18595C10.091 6.53053 9.09013 6.8751 8.10563 7.21968C7.25239 7.51503 6.39916 7.82679 5.54592 8.12214C5.33261 8.20418 5.1029 8.26982 5.00445 8.49953C4.87318 8.77848 4.97163 9.09024 5.26698 9.30354C5.52951 9.50045 5.85768 9.6153 6.13662 9.77939C6.56324 10.0091 7.00627 10.206 7.4493 10.4193C7.67901 10.5178 7.87591 10.649 7.99077 10.8787C8.28612 11.4859 8.58147 12.093 8.87682 12.6837C9.00809 12.9462 9.12295 13.2416 9.36908 13.4385C9.68083 13.701 10.091 13.6025 10.2387 13.2251C10.4192 12.7329 10.5833 12.2406 10.7638 11.7484C11.0099 11.0428 11.2724 10.3209 11.5186 9.6153C11.7975 8.8277 12.0765 8.02369 12.3554 7.23609C12.421 6.95715 12.5523 6.71102 12.5523 6.44849Z" fill="#AE1926"/>
</svg>
