<svg width="337" height="433" viewBox="0 0 337 433" fill="none" xmlns="http://www.w3.org/2000/svg">
<path d="M327.982 13.5572H313.117V-19.8113C313.117 -22.3905 312.01 -24.9697 310.112 -26.7429C308.214 -28.5161 305.526 -29.3221 302.996 -28.8385L7.74498 13.7184C7.58683 13.7184 7.58683 13.7184 7.42869 13.7184C7.11241 13.7184 6.79613 13.8796 6.47984 13.8796C6.16356 13.8796 6.00542 14.0408 5.68913 14.202C5.37285 14.3632 5.21471 14.5244 4.89843 14.5244C4.58214 14.6856 4.424 14.8468 4.10772 15.008C3.79143 15.1692 3.63329 15.3304 3.47515 15.4916C3.15887 15.6528 3.00073 15.814 2.84258 16.1364C2.68444 16.2976 2.5263 16.62 2.21002 16.7812C2.05187 16.9424 1.89373 17.2648 1.73559 17.426C1.57745 17.5872 1.41931 17.9096 1.26117 18.232C1.10302 18.5544 0.944883 18.7156 0.786741 19.038C0.628599 19.3604 0.628599 19.5216 0.470457 19.844C0.312316 20.1664 0.312316 20.4888 0.154174 20.65C0.154174 20.9724 -0.00396766 21.1336 -0.00396766 21.456C-0.00396766 21.7784 -0.162109 22.1008 -0.162109 22.4232C-0.162109 22.5844 -0.162109 22.5844 -0.162109 22.7456V423.973C-0.162109 428.97 3.79143 433.162 8.85197 433.162H52.3409C57.2433 433.162 61.355 429.132 61.355 423.973C61.355 418.815 57.4015 414.785 52.3409 414.785H17.866V31.7728H319.126V414.785H135.682C130.779 414.785 126.668 418.815 126.668 423.973C126.668 429.132 130.621 433.162 135.682 433.162H327.982C332.884 433.162 336.996 429.132 336.996 423.973V22.7456C336.996 17.5872 333.042 13.5572 327.982 13.5572ZM295.247 13.5572H136.156L295.247 -9.33323V13.5572Z" fill="white"/>
<path d="M170.002 95.6077C120.662 95.6077 80.4941 136.553 80.4941 186.847C80.4941 237.141 120.662 278.086 170.002 278.086C219.343 278.086 259.511 237.141 259.511 186.847C259.511 136.553 219.343 95.6077 170.002 95.6077ZM241.008 177.659H208.589C207.798 155.735 203.687 134.618 196.886 119.143C220.45 128.976 237.687 151.061 241.008 177.659ZM170.002 259.871C163.202 259.871 151.025 235.852 149.286 196.035H190.561C188.979 235.852 176.802 259.871 170.002 259.871ZM149.286 177.659C150.867 137.842 163.044 113.823 170.002 113.823C176.961 113.823 188.979 137.842 190.719 177.659H149.286ZM143.118 119.143C136.16 134.618 132.206 155.735 131.416 177.659H98.9967C102.318 151.061 119.555 128.976 143.118 119.143ZM98.9967 196.035H131.416C132.206 217.959 136.318 239.076 143.118 254.551C119.555 244.718 102.318 222.472 98.9967 196.035ZM196.886 254.39C203.845 238.915 207.798 217.797 208.589 195.874H241.008C237.687 222.472 220.45 244.718 196.886 254.39Z" fill="white"/>
<path d="M202.739 323.706C202.739 318.709 198.785 314.518 193.725 314.518H68.6347C63.7323 314.518 59.6206 318.548 59.6206 323.706C59.6206 328.703 63.5742 332.895 68.6347 332.895H193.883C198.785 332.733 202.739 328.703 202.739 323.706Z" fill="white"/>
<path d="M211.751 323.706C211.751 328.703 215.705 332.895 220.765 332.895H274.375C279.277 332.895 283.389 328.865 283.389 323.706C283.389 318.709 279.436 314.518 274.375 314.518H220.765C215.705 314.518 211.751 318.548 211.751 323.706Z" fill="white"/>
<path d="M32.7358 49.988V174.596C32.7358 179.593 36.6894 183.784 41.7499 183.784C46.8104 183.784 50.764 179.754 50.764 174.596V49.988C50.764 44.9908 46.8104 40.7996 41.7499 40.7996C36.6894 40.7996 32.7358 44.9908 32.7358 49.988Z" fill="white"/>
</svg>
