<svg width="338" height="315" viewBox="0 0 338 315" fill="none" xmlns="http://www.w3.org/2000/svg">
<path d="M330.347 227.359C334.684 227.359 338 224.056 338 219.738V68.8426C338 64.5241 334.684 61.2217 330.347 61.2217H246.676C242.339 61.2217 239.023 64.5241 239.023 68.8426V302.298C239.023 306.617 242.339 309.919 246.676 309.919H330.347C334.684 309.919 338 306.617 338 302.298V268.766C338 264.447 334.684 261.145 330.347 261.145C326.01 261.145 322.694 264.447 322.694 268.766V294.677H254.329V76.4636H322.694V219.738C322.694 224.056 326.01 227.359 330.347 227.359Z" fill="white"/>
<path d="M204.841 0H121.17C116.833 0 113.517 3.30242 113.517 7.62097V302.298C113.517 306.617 116.833 309.919 121.17 309.919H204.841C209.177 309.919 212.493 306.617 212.493 302.298V7.62097C212.493 3.30242 209.177 0 204.841 0ZM197.188 294.677H128.822V15.2419H197.188V294.677Z" fill="white"/>
<path d="M44.6415 266.734C40.3049 266.734 36.9886 270.036 36.9886 274.355V307.379C36.9886 311.698 40.3049 315 44.6415 315C48.9781 315 52.2943 311.698 52.2943 307.379V274.355C52.2943 270.036 48.9781 266.734 44.6415 266.734Z" fill="white"/>
<path d="M51.274 18.7985C48.2128 15.7501 43.366 15.7501 40.56 18.7985L2.29585 56.9033C-0.765283 59.9517 -0.765283 64.7783 2.29585 67.5727C5.35698 70.6211 10.2038 70.6211 13.0098 67.5727L36.9887 43.6937V241.331C36.9887 245.649 40.3049 248.952 44.6415 248.952C48.9781 248.952 52.2943 245.649 52.2943 241.331V41.1533L78.8242 67.5727C80.3547 69.0969 82.3955 69.859 84.1811 69.859C85.9668 69.859 88.0075 69.0969 89.5381 67.5727C92.5992 64.5243 92.5992 59.6977 89.5381 56.9033L51.274 18.7985Z" fill="white"/>
<path d="M178.056 104.153C182.392 104.153 185.708 100.851 185.708 96.5323V33.0243C185.708 28.7057 182.392 25.4033 178.056 25.4033C173.719 25.4033 170.403 28.7057 170.403 33.0243V96.5323C170.403 100.851 173.719 104.153 178.056 104.153Z" fill="white"/>
<path d="M292.848 93.9918V157.5C292.848 161.818 296.165 165.121 300.501 165.121C304.838 165.121 308.154 161.818 308.154 157.5V93.9918C308.154 89.6733 304.838 86.3708 300.501 86.3708C296.165 86.3708 292.848 89.6733 292.848 93.9918Z" fill="white"/>
<path d="M178.056 162.581C182.392 162.581 185.708 159.278 185.708 154.96V124.476C185.708 120.157 182.392 116.855 178.056 116.855C173.719 116.855 170.403 120.157 170.403 124.476V154.96C170.403 159.278 173.719 162.581 178.056 162.581Z" fill="white"/>
</svg>
