<svg width="472" height="126" viewBox="0 0 472 126" fill="none" xmlns="http://www.w3.org/2000/svg">
<g opacity="1">
<path d="M63.0639 0.256348C28.7338 0.256348 0.599976 28.3902 0.599976 62.7202C0.599976 97.0502 28.7338 125.184 63.0639 125.184C97.3939 125.184 125.528 97.0502 125.528 62.7202C125.528 28.3902 97.3939 0.256348 63.0639 0.256348ZM63.0639 100.232C42.4658 100.232 25.552 83.4857 25.552 62.7202C25.552 41.9548 42.2984 25.2084 63.0639 25.2084C83.8293 25.2084 100.576 41.9548 100.576 62.7202C100.576 83.4857 83.6619 100.232 63.0639 100.232Z" fill="white"/>
<path d="M235.886 0.256348C201.556 0.256348 173.422 28.3902 173.422 62.7202C173.422 97.0502 201.556 125.184 235.886 125.184C270.216 125.184 298.35 97.0502 298.35 62.7202C298.35 28.3902 270.216 0.256348 235.886 0.256348ZM235.886 100.232C215.288 100.232 198.374 83.4857 198.374 62.7202C198.374 41.9548 215.121 25.2084 235.886 25.2084C256.652 25.2084 273.398 41.9548 273.398 62.7202C273.398 83.4857 256.484 100.232 235.886 100.232Z" fill="white"/>
<path d="M408.708 0.256348C374.378 0.256348 346.245 28.3902 346.245 62.7202C346.245 97.0502 374.378 125.184 408.708 125.184C443.038 125.184 471.172 97.0502 471.172 62.7202C471.172 28.3902 443.038 0.256348 408.708 0.256348ZM408.708 100.232C388.11 100.232 371.197 83.4857 371.197 62.7202C371.197 41.9548 387.943 25.2084 408.708 25.2084C429.306 25.2084 446.22 41.9548 446.22 62.7202C446.22 83.4857 429.306 100.232 408.708 100.232Z" fill="white"/>
</g>
</svg>
