<svg width="52" height="32" viewBox="0 0 52 32" fill="none" xmlns="http://www.w3.org/2000/svg">
<path fill-rule="evenodd" clip-rule="evenodd" d="M16.4434 13.0104V19.3325H25.3861C24.0806 23.012 20.5655 25.6546 16.4434 25.6546C11.2151 25.6546 6.96029 21.3999 6.96029 16.1715C6.96029 10.9431 11.2151 6.68832 16.4434 6.68832C18.7099 6.68832 20.8911 7.50071 22.5854 8.97692L26.739 4.21005C23.8941 1.73179 20.2399 0.366211 16.4434 0.366211C7.72843 0.366211 0.638184 7.45645 0.638184 16.1715C0.638184 24.8865 7.72843 31.9767 16.4434 31.9767C25.1585 31.9767 32.2487 24.8865 32.2487 16.1715V13.0104H16.4434ZM45.2442 13.7129V7.39077H42.0831V13.7129H35.761V16.8739H42.0831V23.196H45.2442V16.8739H51.5663V13.7129H45.2442Z" fill="#45445E" fill-opacity="0.3"/>
</svg>
