<svg width="44" height="27" viewBox="0 0 44 27" fill="none" xmlns="http://www.w3.org/2000/svg">
<mask id="mask0" mask-type="alpha" maskUnits="userSpaceOnUse" x="0" y="0" width="44" height="27">
<path fill-rule="evenodd" clip-rule="evenodd" d="M0 0.256836H43.3164V26.623H0V0.256836Z" fill="white"/>
</mask>
<g mask="url(#mask0)">
<path opacity="0.3" fill-rule="evenodd" clip-rule="evenodd" d="M35.946 13.2075C35.445 14.0314 35.2435 14.443 35.946 15.3686C36.4479 16.0899 38.1052 17.5297 39.2098 18.8678C41.2457 21.2144 42.7796 23.1947 43.2072 24.5592C43.597 25.9284 42.9199 26.6233 41.5668 26.6233H36.8283C35.0204 26.6233 34.4902 25.1449 31.2773 21.8519C28.4664 19.074 27.2611 18.7134 26.5577 18.7134C25.6047 18.7134 25.3194 18.9902 25.3194 20.3782V24.7344C25.3194 25.9284 24.9455 26.6233 21.9341 26.6233C16.9141 26.6233 11.3969 23.4989 7.48055 17.7359C1.60647 9.29772 0 2.91703 0 1.62978C0 0.909407 0.271198 0.256836 1.62531 0.256836H6.36374C7.57472 0.256836 8.03048 0.800174 8.48436 2.14392C10.8018 9.06513 14.7097 15.1115 16.3162 15.1115C16.9188 15.1115 17.1957 14.8272 17.1957 13.2593V6.10643C17.0196 2.81344 15.3123 2.54413 15.3123 1.3727C15.3123 0.829366 15.7653 0.256836 16.5186 0.256836H23.9653C24.9691 0.256836 25.3194 0.806766 25.3194 2.04222V11.6641C25.3194 12.6933 25.7554 13.0531 26.0557 13.0531C26.6594 13.0531 27.1603 12.6933 28.2658 11.5605C31.6793 7.64981 34.0881 1.62978 34.0881 1.62978C34.3904 0.909407 34.946 0.256836 36.1503 0.256836H40.8897C42.322 0.256836 42.6243 1.01299 42.322 2.04222C41.7203 4.87191 35.946 13.2075 35.946 13.2075Z" fill="#45445E"/>
</g>
</svg>
