<svg width="43" height="31" viewBox="0 0 43 31" fill="none" xmlns="http://www.w3.org/2000/svg">
<mask id="mask0" mask-type="alpha" maskUnits="userSpaceOnUse" x="0" y="0" width="43" height="31">
<path fill-rule="evenodd" clip-rule="evenodd" d="M0.199707 0.92334H42.4344V30.4874H0.199707V0.92334Z" fill="white"/>
</mask>
<g mask="url(#mask0)">
<path opacity="0.3" fill-rule="evenodd" clip-rule="evenodd" d="M17.0932 22.0407V9.37011L28.0663 15.7054L17.0932 22.0407ZM41.5518 5.53978C41.0664 3.72253 39.6343 2.29138 37.818 1.80598C34.5242 0.92334 21.3171 0.92334 21.3171 0.92334C21.3171 0.92334 8.11002 0.92334 4.81615 1.80598C2.9989 2.29138 1.56775 3.72253 1.08234 5.53978C0.199707 8.83366 0.199707 15.7054 0.199707 15.7054C0.199707 15.7054 0.199707 22.5772 1.08234 25.8701C1.56775 27.6874 2.9989 29.1194 4.81615 29.6039C8.11002 30.4875 21.3171 30.4875 21.3171 30.4875C21.3171 30.4875 34.5242 30.4875 37.818 29.6039C39.6343 29.1194 41.0664 27.6874 41.5518 25.8701C42.4345 22.5772 42.4345 15.7054 42.4345 15.7054C42.4345 15.7054 42.4345 8.83366 41.5518 5.53978Z" fill="#45445E"/>
</g>
</svg>
